<svg xmlns="http://www.w3.org/2000/svg" xmlns:xlink="http://www.w3.org/1999/xlink" width="231" height="234" viewBox="0 0 231 234"><defs><style>.a{fill:none;}.b{clip-path:url(#a);}.c{fill:#c493a6;}</style><clipPath id="a"><rect class="a" width="231" height="234"/></clipPath></defs><g class="b"><g transform="translate(-653 -2546)"><rect class="c" width="4" height="4" transform="translate(653 2546)"/></g><g transform="translate(-636 -2546)"><rect class="c" width="4" height="4" transform="translate(653 2546)"/></g><g transform="translate(-619 -2546)"><rect class="c" width="4" height="4" transform="translate(653 2546)"/></g><g transform="translate(-602 -2546)"><rect class="c" width="4" height="4" transform="translate(653 2546)"/></g><g transform="translate(-585 -2546)"><rect class="c" width="4" height="4" transform="translate(653 2546)"/></g><g transform="translate(-568 -2546)"><rect class="c" width="4" height="4" transform="translate(653 2546)"/></g><g transform="translate(-551 -2546)"><rect class="c" width="4" height="4" transform="translate(653 2546)"/></g><g transform="translate(-534 -2546)"><rect class="c" width="4" height="4" transform="translate(653 2546)"/></g><g transform="translate(-517 -2546)"><rect class="c" width="4" height="4" transform="translate(653 2546)"/></g><g transform="translate(-500 -2546)"><rect class="c" width="4" height="4" transform="translate(653 2546)"/></g><g transform="translate(-483 -2546)"><rect class="c" width="4" height="4" transform="translate(653 2546)"/></g><g transform="translate(-466 -2546)"><rect class="c" width="4" height="4" transform="translate(653 2546)"/></g><g transform="translate(-449 -2546)"><rect class="c" width="4" height="4" transform="translate(653 2546)"/></g><g transform="translate(-432 -2546)"><rect class="c" width="4" height="4" transform="translate(653 2546)"/></g><g transform="translate(-653 -2529)"><rect class="c" width="4" height="4" transform="translate(653 2546)"/></g><g transform="translate(-636 -2529)"><rect class="c" width="4" height="4" transform="translate(653 2546)"/></g><g transform="translate(-619 -2529)"><rect class="c" width="4" height="4" transform="translate(653 2546)"/></g><g transform="translate(-602 -2529)"><rect class="c" width="4" height="4" transform="translate(653 2546)"/></g><g transform="translate(-585 -2529)"><rect class="c" width="4" height="4" transform="translate(653 2546)"/></g><g transform="translate(-568 -2529)"><rect class="c" width="4" height="4" transform="translate(653 2546)"/></g><g transform="translate(-551 -2529)"><rect class="c" width="4" height="4" transform="translate(653 2546)"/></g><g transform="translate(-534 -2529)"><rect class="c" width="4" height="4" transform="translate(653 2546)"/></g><g transform="translate(-517 -2529)"><rect class="c" width="4" height="4" transform="translate(653 2546)"/></g><g transform="translate(-500 -2529)"><rect class="c" width="4" height="4" transform="translate(653 2546)"/></g><g transform="translate(-483 -2529)"><rect class="c" width="4" height="4" transform="translate(653 2546)"/></g><g transform="translate(-466 -2529)"><rect class="c" width="4" height="4" transform="translate(653 2546)"/></g><g transform="translate(-449 -2529)"><rect class="c" width="4" height="4" transform="translate(653 2546)"/></g><g transform="translate(-432 -2529)"><rect class="c" width="4" height="4" transform="translate(653 2546)"/></g><g transform="translate(-653 -2512)"><rect class="c" width="4" height="4" transform="translate(653 2546)"/></g><g transform="translate(-636 -2512)"><rect class="c" width="4" height="4" transform="translate(653 2546)"/></g><g transform="translate(-619 -2512)"><rect class="c" width="4" height="4" transform="translate(653 2546)"/></g><g transform="translate(-602 -2512)"><rect class="c" width="4" height="4" transform="translate(653 2546)"/></g><g transform="translate(-585 -2512)"><rect class="c" width="4" height="4" transform="translate(653 2546)"/></g><g transform="translate(-568 -2512)"><rect class="c" width="4" height="4" transform="translate(653 2546)"/></g><g transform="translate(-551 -2512)"><rect class="c" width="4" height="4" transform="translate(653 2546)"/></g><g transform="translate(-534 -2512)"><rect class="c" width="4" height="4" transform="translate(653 2546)"/></g><g transform="translate(-517 -2512)"><rect class="c" width="4" height="4" transform="translate(653 2546)"/></g><g transform="translate(-500 -2512)"><rect class="c" width="4" height="4" transform="translate(653 2546)"/></g><g transform="translate(-483 -2512)"><rect class="c" width="4" height="4" transform="translate(653 2546)"/></g><g transform="translate(-466 -2512)"><rect class="c" width="4" height="4" transform="translate(653 2546)"/></g><g transform="translate(-449 -2512)"><rect class="c" width="4" height="4" transform="translate(653 2546)"/></g><g transform="translate(-432 -2512)"><rect class="c" width="4" height="4" transform="translate(653 2546)"/></g><g transform="translate(-653 -2495)"><rect class="c" width="4" height="4" transform="translate(653 2546)"/></g><g transform="translate(-636 -2495)"><rect class="c" width="4" height="4" transform="translate(653 2546)"/></g><g transform="translate(-619 -2495)"><rect class="c" width="4" height="4" transform="translate(653 2546)"/></g><g transform="translate(-602 -2495)"><rect class="c" width="4" height="4" transform="translate(653 2546)"/></g><g transform="translate(-585 -2495)"><rect class="c" width="4" height="4" transform="translate(653 2546)"/></g><g transform="translate(-568 -2495)"><rect class="c" width="4" height="4" transform="translate(653 2546)"/></g><g transform="translate(-551 -2495)"><rect class="c" width="4" height="4" transform="translate(653 2546)"/></g><g transform="translate(-534 -2495)"><rect class="c" width="4" height="4" transform="translate(653 2546)"/></g><g transform="translate(-517 -2495)"><rect class="c" width="4" height="4" transform="translate(653 2546)"/></g><g transform="translate(-500 -2495)"><rect class="c" width="4" height="4" transform="translate(653 2546)"/></g><g transform="translate(-483 -2495)"><rect class="c" width="4" height="4" transform="translate(653 2546)"/></g><g transform="translate(-466 -2495)"><rect class="c" width="4" height="4" transform="translate(653 2546)"/></g><g transform="translate(-449 -2495)"><rect class="c" width="4" height="4" transform="translate(653 2546)"/></g><g transform="translate(-432 -2495)"><rect class="c" width="4" height="4" transform="translate(653 2546)"/></g><g transform="translate(-653 -2478)"><rect class="c" width="4" height="4" transform="translate(653 2546)"/></g><g transform="translate(-636 -2478)"><rect class="c" width="4" height="4" transform="translate(653 2546)"/></g><g transform="translate(-619 -2478)"><rect class="c" width="4" height="4" transform="translate(653 2546)"/></g><g transform="translate(-602 -2478)"><rect class="c" width="4" height="4" transform="translate(653 2546)"/></g><g transform="translate(-585 -2478)"><rect class="c" width="4" height="4" transform="translate(653 2546)"/></g><g transform="translate(-568 -2478)"><rect class="c" width="4" height="4" transform="translate(653 2546)"/></g><g transform="translate(-551 -2478)"><rect class="c" width="4" height="4" transform="translate(653 2546)"/></g><g transform="translate(-534 -2478)"><rect class="c" width="4" height="4" transform="translate(653 2546)"/></g><g transform="translate(-517 -2478)"><rect class="c" width="4" height="4" transform="translate(653 2546)"/></g><g transform="translate(-500 -2478)"><rect class="c" width="4" height="4" transform="translate(653 2546)"/></g><g transform="translate(-483 -2478)"><rect class="c" width="4" height="4" transform="translate(653 2546)"/></g><g transform="translate(-466 -2478)"><rect class="c" width="4" height="4" transform="translate(653 2546)"/></g><g transform="translate(-449 -2478)"><rect class="c" width="4" height="4" transform="translate(653 2546)"/></g><g transform="translate(-432 -2478)"><rect class="c" width="4" height="4" transform="translate(653 2546)"/></g><g transform="translate(-653 -2461)"><rect class="c" width="4" height="4" transform="translate(653 2546)"/></g><g transform="translate(-636 -2461)"><rect class="c" width="4" height="4" transform="translate(653 2546)"/></g><g transform="translate(-619 -2461)"><rect class="c" width="4" height="4" transform="translate(653 2546)"/></g><g transform="translate(-602 -2461)"><rect class="c" width="4" height="4" transform="translate(653 2546)"/></g><g transform="translate(-585 -2461)"><rect class="c" width="4" height="4" transform="translate(653 2546)"/></g><g transform="translate(-568 -2461)"><rect class="c" width="4" height="4" transform="translate(653 2546)"/></g><g transform="translate(-551 -2461)"><rect class="c" width="4" height="4" transform="translate(653 2546)"/></g><g transform="translate(-534 -2461)"><rect class="c" width="4" height="4" transform="translate(653 2546)"/></g><g transform="translate(-517 -2461)"><rect class="c" width="4" height="4" transform="translate(653 2546)"/></g><g transform="translate(-500 -2461)"><rect class="c" width="4" height="4" transform="translate(653 2546)"/></g><g transform="translate(-483 -2461)"><rect class="c" width="4" height="4" transform="translate(653 2546)"/></g><g transform="translate(-466 -2461)"><rect class="c" width="4" height="4" transform="translate(653 2546)"/></g><g transform="translate(-449 -2461)"><rect class="c" width="4" height="4" transform="translate(653 2546)"/></g><g transform="translate(-432 -2461)"><rect class="c" width="4" height="4" transform="translate(653 2546)"/></g><g transform="translate(-653 -2444)"><rect class="c" width="4" height="4" transform="translate(653 2546)"/></g><g transform="translate(-636 -2444)"><rect class="c" width="4" height="4" transform="translate(653 2546)"/></g><g transform="translate(-619 -2444)"><rect class="c" width="4" height="4" transform="translate(653 2546)"/></g><g transform="translate(-602 -2444)"><rect class="c" width="4" height="4" transform="translate(653 2546)"/></g><g transform="translate(-585 -2444)"><rect class="c" width="4" height="4" transform="translate(653 2546)"/></g><g transform="translate(-568 -2444)"><rect class="c" width="4" height="4" transform="translate(653 2546)"/></g><g transform="translate(-551 -2444)"><rect class="c" width="4" height="4" transform="translate(653 2546)"/></g><g transform="translate(-534 -2444)"><rect class="c" width="4" height="4" transform="translate(653 2546)"/></g><g transform="translate(-517 -2444)"><rect class="c" width="4" height="4" transform="translate(653 2546)"/></g><g transform="translate(-500 -2444)"><rect class="c" width="4" height="4" transform="translate(653 2546)"/></g><g transform="translate(-483 -2444)"><rect class="c" width="4" height="4" transform="translate(653 2546)"/></g><g transform="translate(-466 -2444)"><rect class="c" width="4" height="4" transform="translate(653 2546)"/></g><g transform="translate(-449 -2444)"><rect class="c" width="4" height="4" transform="translate(653 2546)"/></g><g transform="translate(-432 -2444)"><rect class="c" width="4" height="4" transform="translate(653 2546)"/></g><g transform="translate(-653 -2427)"><rect class="c" width="4" height="4" transform="translate(653 2546)"/></g><g transform="translate(-636 -2427)"><rect class="c" width="4" height="4" transform="translate(653 2546)"/></g><g transform="translate(-619 -2427)"><rect class="c" width="4" height="4" transform="translate(653 2546)"/></g><g transform="translate(-602 -2427)"><rect class="c" width="4" height="4" transform="translate(653 2546)"/></g><g transform="translate(-585 -2427)"><rect class="c" width="4" height="4" transform="translate(653 2546)"/></g><g transform="translate(-568 -2427)"><rect class="c" width="4" height="4" transform="translate(653 2546)"/></g><g transform="translate(-551 -2427)"><rect class="c" width="4" height="4" transform="translate(653 2546)"/></g><g transform="translate(-534 -2427)"><rect class="c" width="4" height="4" transform="translate(653 2546)"/></g><g transform="translate(-517 -2427)"><rect class="c" width="4" height="4" transform="translate(653 2546)"/></g><g transform="translate(-500 -2427)"><rect class="c" width="4" height="4" transform="translate(653 2546)"/></g><g transform="translate(-483 -2427)"><rect class="c" width="4" height="4" transform="translate(653 2546)"/></g><g transform="translate(-466 -2427)"><rect class="c" width="4" height="4" transform="translate(653 2546)"/></g><g transform="translate(-449 -2427)"><rect class="c" width="4" height="4" transform="translate(653 2546)"/></g><g transform="translate(-432 -2427)"><rect class="c" width="4" height="4" transform="translate(653 2546)"/></g><g transform="translate(-653 -2410)"><rect class="c" width="4" height="4" transform="translate(653 2546)"/></g><g transform="translate(-636 -2410)"><rect class="c" width="4" height="4" transform="translate(653 2546)"/></g><g transform="translate(-619 -2410)"><rect class="c" width="4" height="4" transform="translate(653 2546)"/></g><g transform="translate(-602 -2410)"><rect class="c" width="4" height="4" transform="translate(653 2546)"/></g><g transform="translate(-585 -2410)"><rect class="c" width="4" height="4" transform="translate(653 2546)"/></g><g transform="translate(-568 -2410)"><rect class="c" width="4" height="4" transform="translate(653 2546)"/></g><g transform="translate(-551 -2410)"><rect class="c" width="4" height="4" transform="translate(653 2546)"/></g><g transform="translate(-534 -2410)"><rect class="c" width="4" height="4" transform="translate(653 2546)"/></g><g transform="translate(-517 -2410)"><rect class="c" width="4" height="4" transform="translate(653 2546)"/></g><g transform="translate(-500 -2410)"><rect class="c" width="4" height="4" transform="translate(653 2546)"/></g><g transform="translate(-483 -2410)"><rect class="c" width="4" height="4" transform="translate(653 2546)"/></g><g transform="translate(-466 -2410)"><rect class="c" width="4" height="4" transform="translate(653 2546)"/></g><g transform="translate(-449 -2410)"><rect class="c" width="4" height="4" transform="translate(653 2546)"/></g><g transform="translate(-432 -2410)"><rect class="c" width="4" height="4" transform="translate(653 2546)"/></g><g transform="translate(-653 -2393)"><rect class="c" width="4" height="4" transform="translate(653 2546)"/></g><g transform="translate(-636 -2393)"><rect class="c" width="4" height="4" transform="translate(653 2546)"/></g><g transform="translate(-619 -2393)"><rect class="c" width="4" height="4" transform="translate(653 2546)"/></g><g transform="translate(-602 -2393)"><rect class="c" width="4" height="4" transform="translate(653 2546)"/></g><g transform="translate(-585 -2393)"><rect class="c" width="4" height="4" transform="translate(653 2546)"/></g><g transform="translate(-568 -2393)"><rect class="c" width="4" height="4" transform="translate(653 2546)"/></g><g transform="translate(-551 -2393)"><rect class="c" width="4" height="4" transform="translate(653 2546)"/></g><g transform="translate(-534 -2393)"><rect class="c" width="4" height="4" transform="translate(653 2546)"/></g><g transform="translate(-517 -2393)"><rect class="c" width="4" height="4" transform="translate(653 2546)"/></g><g transform="translate(-500 -2393)"><rect class="c" width="4" height="4" transform="translate(653 2546)"/></g><g transform="translate(-483 -2393)"><rect class="c" width="4" height="4" transform="translate(653 2546)"/></g><g transform="translate(-466 -2393)"><rect class="c" width="4" height="4" transform="translate(653 2546)"/></g><g transform="translate(-449 -2393)"><rect class="c" width="4" height="4" transform="translate(653 2546)"/></g><g transform="translate(-432 -2393)"><rect class="c" width="4" height="4" transform="translate(653 2546)"/></g><g transform="translate(-653 -2376)"><rect class="c" width="4" height="4" transform="translate(653 2546)"/></g><g transform="translate(-636 -2376)"><rect class="c" width="4" height="4" transform="translate(653 2546)"/></g><g transform="translate(-619 -2376)"><rect class="c" width="4" height="4" transform="translate(653 2546)"/></g><g transform="translate(-602 -2376)"><rect class="c" width="4" height="4" transform="translate(653 2546)"/></g><g transform="translate(-585 -2376)"><rect class="c" width="4" height="4" transform="translate(653 2546)"/></g><g transform="translate(-568 -2376)"><rect class="c" width="4" height="4" transform="translate(653 2546)"/></g><g transform="translate(-551 -2376)"><rect class="c" width="4" height="4" transform="translate(653 2546)"/></g><g transform="translate(-534 -2376)"><rect class="c" width="4" height="4" transform="translate(653 2546)"/></g><g transform="translate(-517 -2376)"><rect class="c" width="4" height="4" transform="translate(653 2546)"/></g><g transform="translate(-500 -2376)"><rect class="c" width="4" height="4" transform="translate(653 2546)"/></g><g transform="translate(-483 -2376)"><rect class="c" width="4" height="4" transform="translate(653 2546)"/></g><g transform="translate(-466 -2376)"><rect class="c" width="4" height="4" transform="translate(653 2546)"/></g><g transform="translate(-449 -2376)"><rect class="c" width="4" height="4" transform="translate(653 2546)"/></g><g transform="translate(-432 -2376)"><rect class="c" width="4" height="4" transform="translate(653 2546)"/></g><g transform="translate(-653 -2359)"><rect class="c" width="4" height="4" transform="translate(653 2546)"/></g><g transform="translate(-636 -2359)"><rect class="c" width="4" height="4" transform="translate(653 2546)"/></g><g transform="translate(-619 -2359)"><rect class="c" width="4" height="4" transform="translate(653 2546)"/></g><g transform="translate(-602 -2359)"><rect class="c" width="4" height="4" transform="translate(653 2546)"/></g><g transform="translate(-585 -2359)"><rect class="c" width="4" height="4" transform="translate(653 2546)"/></g><g transform="translate(-568 -2359)"><rect class="c" width="4" height="4" transform="translate(653 2546)"/></g><g transform="translate(-551 -2359)"><rect class="c" width="4" height="4" transform="translate(653 2546)"/></g><g transform="translate(-534 -2359)"><rect class="c" width="4" height="4" transform="translate(653 2546)"/></g><g transform="translate(-517 -2359)"><rect class="c" width="4" height="4" transform="translate(653 2546)"/></g><g transform="translate(-500 -2359)"><rect class="c" width="4" height="4" transform="translate(653 2546)"/></g><g transform="translate(-483 -2359)"><rect class="c" width="4" height="4" transform="translate(653 2546)"/></g><g transform="translate(-466 -2359)"><rect class="c" width="4" height="4" transform="translate(653 2546)"/></g><g transform="translate(-449 -2359)"><rect class="c" width="4" height="4" transform="translate(653 2546)"/></g><g transform="translate(-432 -2359)"><rect class="c" width="4" height="4" transform="translate(653 2546)"/></g><g transform="translate(-653 -2342)"><rect class="c" width="4" height="4" transform="translate(653 2546)"/></g><g transform="translate(-636 -2342)"><rect class="c" width="4" height="4" transform="translate(653 2546)"/></g><g transform="translate(-619 -2342)"><rect class="c" width="4" height="4" transform="translate(653 2546)"/></g><g transform="translate(-602 -2342)"><rect class="c" width="4" height="4" transform="translate(653 2546)"/></g><g transform="translate(-585 -2342)"><rect class="c" width="4" height="4" transform="translate(653 2546)"/></g><g transform="translate(-568 -2342)"><rect class="c" width="4" height="4" transform="translate(653 2546)"/></g><g transform="translate(-551 -2342)"><rect class="c" width="4" height="4" transform="translate(653 2546)"/></g><g transform="translate(-534 -2342)"><rect class="c" width="4" height="4" transform="translate(653 2546)"/></g><g transform="translate(-517 -2342)"><rect class="c" width="4" height="4" transform="translate(653 2546)"/></g><g transform="translate(-500 -2342)"><rect class="c" width="4" height="4" transform="translate(653 2546)"/></g><g transform="translate(-483 -2342)"><rect class="c" width="4" height="4" transform="translate(653 2546)"/></g><g transform="translate(-466 -2342)"><rect class="c" width="4" height="4" transform="translate(653 2546)"/></g><g transform="translate(-449 -2342)"><rect class="c" width="4" height="4" transform="translate(653 2546)"/></g><g transform="translate(-432 -2342)"><rect class="c" width="4" height="4" transform="translate(653 2546)"/></g><g transform="translate(-653 -2325)"><rect class="c" width="4" height="4" transform="translate(653 2546)"/></g><g transform="translate(-636 -2325)"><rect class="c" width="4" height="4" transform="translate(653 2546)"/></g><g transform="translate(-619 -2325)"><rect class="c" width="4" height="4" transform="translate(653 2546)"/></g><g transform="translate(-602 -2325)"><rect class="c" width="4" height="4" transform="translate(653 2546)"/></g><g transform="translate(-585 -2325)"><rect class="c" width="4" height="4" transform="translate(653 2546)"/></g><g transform="translate(-568 -2325)"><rect class="c" width="4" height="4" transform="translate(653 2546)"/></g><g transform="translate(-551 -2325)"><rect class="c" width="4" height="4" transform="translate(653 2546)"/></g><g transform="translate(-534 -2325)"><rect class="c" width="4" height="4" transform="translate(653 2546)"/></g><g transform="translate(-517 -2325)"><rect class="c" width="4" height="4" transform="translate(653 2546)"/></g><g transform="translate(-500 -2325)"><rect class="c" width="4" height="4" transform="translate(653 2546)"/></g><g transform="translate(-483 -2325)"><rect class="c" width="4" height="4" transform="translate(653 2546)"/></g><g transform="translate(-466 -2325)"><rect class="c" width="4" height="4" transform="translate(653 2546)"/></g><g transform="translate(-449 -2325)"><rect class="c" width="4" height="4" transform="translate(653 2546)"/></g><g transform="translate(-432 -2325)"><rect class="c" width="4" height="4" transform="translate(653 2546)"/></g></g></svg>