<svg xmlns="http://www.w3.org/2000/svg" width="23.681" height="21.789" viewBox="0 0 23.681 21.789"><defs><style>.a{fill:none;stroke:#c493a6;stroke-width:1.5px;}</style></defs><g transform="translate(0.157 -1.2)"><path class="a" d="M18.629,14.943c-.442-1.049-.891-.907-1.226-.923C17.085,14,16.723,14,16.359,14a2.013,2.013,0,0,0-1.453.673A6,6,0,0,0,13,19.16c0,2.647,1.952,5.2,2.224,5.563s3.841,5.791,9.3,8.121a31.874,31.874,0,0,0,3.1,1.133,7.559,7.559,0,0,0,3.431.213c1.046-.154,3.223-1.3,3.677-2.557a4.437,4.437,0,0,0,.317-2.557c-.137-.224-.5-.359-1.044-.628s-3.223-1.571-3.723-1.749-.862-.269-1.226.269-1.407,1.749-1.724,2.109-.636.4-1.18.135a14.9,14.9,0,0,1-4.38-2.669,16.208,16.208,0,0,1-3.03-3.726c-.317-.539-.034-.829.239-1.1.245-.242.544-.628.817-.943a3.625,3.625,0,0,0,.544-.9.982.982,0,0,0-.046-.943C20.172,18.666,19.082,16.02,18.629,14.943Z" transform="translate(-12.407 -12.05)"/></g></svg>