<svg xmlns="http://www.w3.org/2000/svg" width="19.346" height="19.772" viewBox="0 0 19.346 19.772"><defs><style>.a,.b{fill:none;stroke:#c493a6;stroke-width:1.5px;}.a{stroke-linecap:round;stroke-linejoin:round;}</style></defs><g transform="translate(-446.35 -4840.013)"><path class="a" d="M14.986,7.265H12.824L10.662,8.707V7.265H9.221A.721.721,0,0,1,8.5,6.545V2.221A.721.721,0,0,1,9.221,1.5h5.765a.721.721,0,0,1,.721.721V6.545A.721.721,0,0,1,14.986,7.265Z" transform="translate(449.206 4839.263)"/><g transform="translate(447.1 4842.709)"><path class="b" d="M17.529,14.759c-.356-.844-.717-.73-.986-.743S16,14,15.7,14a1.62,1.62,0,0,0-1.169.542A4.826,4.826,0,0,0,13,18.152a8.365,8.365,0,0,0,1.789,4.476c.22.289,3.091,4.66,7.487,6.534a25.647,25.647,0,0,0,2.5.911,6.082,6.082,0,0,0,2.761.171c.842-.124,2.593-1.047,2.958-2.057a3.57,3.57,0,0,0,.255-2.057c-.11-.18-.4-.289-.84-.505s-2.593-1.264-3-1.407-.694-.217-.986.217-1.132,1.407-1.387,1.7-.511.325-.949.108a11.987,11.987,0,0,1-3.524-2.148,13.041,13.041,0,0,1-2.438-3c-.255-.433-.027-.667.192-.883.2-.194.438-.505.658-.759a2.917,2.917,0,0,0,.438-.722.79.79,0,0,0-.037-.759C18.771,17.755,17.894,15.625,17.529,14.759Z" transform="translate(-13 -14)"/></g></g></svg>