<svg xmlns="http://www.w3.org/2000/svg" xmlns:xlink="http://www.w3.org/1999/xlink" width="480" height="360" viewBox="0 0 480 360"><defs><style>.a{fill:none;}.b{clip-path:url(#a);}.c{fill:#c493a6;}</style><clipPath id="a"><rect class="a" width="480" height="360"/></clipPath></defs><g class="b"><g transform="translate(-653 -2546)"><rect class="c" width="4" height="4" transform="translate(653 2546)"/></g><g transform="translate(-638 -2546)"><rect class="c" width="4" height="4" transform="translate(653 2546)"/></g><g transform="translate(-623 -2546)"><rect class="c" width="4" height="4" transform="translate(653 2546)"/></g><g transform="translate(-608 -2546)"><rect class="c" width="4" height="4" transform="translate(653 2546)"/></g><g transform="translate(-593 -2546)"><rect class="c" width="4" height="4" transform="translate(653 2546)"/></g><g transform="translate(-578 -2546)"><rect class="c" width="4" height="4" transform="translate(653 2546)"/></g><g transform="translate(-563 -2546)"><rect class="c" width="4" height="4" transform="translate(653 2546)"/></g><g transform="translate(-548 -2546)"><rect class="c" width="4" height="4" transform="translate(653 2546)"/></g><g transform="translate(-533 -2546)"><rect class="c" width="4" height="4" transform="translate(653 2546)"/></g><g transform="translate(-518 -2546)"><rect class="c" width="4" height="4" transform="translate(653 2546)"/></g><g transform="translate(-503 -2546)"><rect class="c" width="4" height="4" transform="translate(653 2546)"/></g><g transform="translate(-488 -2546)"><rect class="c" width="4" height="4" transform="translate(653 2546)"/></g><g transform="translate(-473 -2546)"><rect class="c" width="4" height="4" transform="translate(653 2546)"/></g><g transform="translate(-458 -2546)"><rect class="c" width="4" height="4" transform="translate(653 2546)"/></g><g transform="translate(-443 -2546)"><rect class="c" width="4" height="4" transform="translate(653 2546)"/></g><g transform="translate(-428 -2546)"><rect class="c" width="4" height="4" transform="translate(653 2546)"/></g><g transform="translate(-413 -2546)"><rect class="c" width="4" height="4" transform="translate(653 2546)"/></g><g transform="translate(-398 -2546)"><rect class="c" width="4" height="4" transform="translate(653 2546)"/></g><g transform="translate(-383 -2546)"><rect class="c" width="4" height="4" transform="translate(653 2546)"/></g><g transform="translate(-368 -2546)"><rect class="c" width="4" height="4" transform="translate(653 2546)"/></g><g transform="translate(-353 -2546)"><rect class="c" width="4" height="4" transform="translate(653 2546)"/></g><g transform="translate(-338 -2546)"><rect class="c" width="4" height="4" transform="translate(653 2546)"/></g><g transform="translate(-323 -2546)"><rect class="c" width="4" height="4" transform="translate(653 2546)"/></g><g transform="translate(-308 -2546)"><rect class="c" width="4" height="4" transform="translate(653 2546)"/></g><g transform="translate(-293 -2546)"><rect class="c" width="4" height="4" transform="translate(653 2546)"/></g><g transform="translate(-278 -2546)"><rect class="c" width="4" height="4" transform="translate(653 2546)"/></g><g transform="translate(-263 -2546)"><rect class="c" width="4" height="4" transform="translate(653 2546)"/></g><g transform="translate(-248 -2546)"><rect class="c" width="4" height="4" transform="translate(653 2546)"/></g><g transform="translate(-233 -2546)"><rect class="c" width="4" height="4" transform="translate(653 2546)"/></g><g transform="translate(-218 -2546)"><rect class="c" width="4" height="4" transform="translate(653 2546)"/></g><g transform="translate(-203 -2546)"><rect class="c" width="4" height="4" transform="translate(653 2546)"/></g><g transform="translate(-188 -2546)"><rect class="c" width="4" height="4" transform="translate(653 2546)"/></g><g transform="translate(-653 -2531)"><rect class="c" width="4" height="4" transform="translate(653 2546)"/></g><g transform="translate(-638 -2531)"><rect class="c" width="4" height="4" transform="translate(653 2546)"/></g><g transform="translate(-623 -2531)"><rect class="c" width="4" height="4" transform="translate(653 2546)"/></g><g transform="translate(-608 -2531)"><rect class="c" width="4" height="4" transform="translate(653 2546)"/></g><g transform="translate(-593 -2531)"><rect class="c" width="4" height="4" transform="translate(653 2546)"/></g><g transform="translate(-578 -2531)"><rect class="c" width="4" height="4" transform="translate(653 2546)"/></g><g transform="translate(-563 -2531)"><rect class="c" width="4" height="4" transform="translate(653 2546)"/></g><g transform="translate(-548 -2531)"><rect class="c" width="4" height="4" transform="translate(653 2546)"/></g><g transform="translate(-533 -2531)"><rect class="c" width="4" height="4" transform="translate(653 2546)"/></g><g transform="translate(-518 -2531)"><rect class="c" width="4" height="4" transform="translate(653 2546)"/></g><g transform="translate(-503 -2531)"><rect class="c" width="4" height="4" transform="translate(653 2546)"/></g><g transform="translate(-488 -2531)"><rect class="c" width="4" height="4" transform="translate(653 2546)"/></g><g transform="translate(-473 -2531)"><rect class="c" width="4" height="4" transform="translate(653 2546)"/></g><g transform="translate(-458 -2531)"><rect class="c" width="4" height="4" transform="translate(653 2546)"/></g><g transform="translate(-443 -2531)"><rect class="c" width="4" height="4" transform="translate(653 2546)"/></g><g transform="translate(-428 -2531)"><rect class="c" width="4" height="4" transform="translate(653 2546)"/></g><g transform="translate(-413 -2531)"><rect class="c" width="4" height="4" transform="translate(653 2546)"/></g><g transform="translate(-398 -2531)"><rect class="c" width="4" height="4" transform="translate(653 2546)"/></g><g transform="translate(-383 -2531)"><rect class="c" width="4" height="4" transform="translate(653 2546)"/></g><g transform="translate(-368 -2531)"><rect class="c" width="4" height="4" transform="translate(653 2546)"/></g><g transform="translate(-353 -2531)"><rect class="c" width="4" height="4" transform="translate(653 2546)"/></g><g transform="translate(-338 -2531)"><rect class="c" width="4" height="4" transform="translate(653 2546)"/></g><g transform="translate(-323 -2531)"><rect class="c" width="4" height="4" transform="translate(653 2546)"/></g><g transform="translate(-308 -2531)"><rect class="c" width="4" height="4" transform="translate(653 2546)"/></g><g transform="translate(-293 -2531)"><rect class="c" width="4" height="4" transform="translate(653 2546)"/></g><g transform="translate(-278 -2531)"><rect class="c" width="4" height="4" transform="translate(653 2546)"/></g><g transform="translate(-263 -2531)"><rect class="c" width="4" height="4" transform="translate(653 2546)"/></g><g transform="translate(-248 -2531)"><rect class="c" width="4" height="4" transform="translate(653 2546)"/></g><g transform="translate(-233 -2531)"><rect class="c" width="4" height="4" transform="translate(653 2546)"/></g><g transform="translate(-218 -2531)"><rect class="c" width="4" height="4" transform="translate(653 2546)"/></g><g transform="translate(-203 -2531)"><rect class="c" width="4" height="4" transform="translate(653 2546)"/></g><g transform="translate(-188 -2531)"><rect class="c" width="4" height="4" transform="translate(653 2546)"/></g><g transform="translate(-653 -2516)"><rect class="c" width="4" height="4" transform="translate(653 2546)"/></g><g transform="translate(-638 -2516)"><rect class="c" width="4" height="4" transform="translate(653 2546)"/></g><g transform="translate(-623 -2516)"><rect class="c" width="4" height="4" transform="translate(653 2546)"/></g><g transform="translate(-608 -2516)"><rect class="c" width="4" height="4" transform="translate(653 2546)"/></g><g transform="translate(-593 -2516)"><rect class="c" width="4" height="4" transform="translate(653 2546)"/></g><g transform="translate(-578 -2516)"><rect class="c" width="4" height="4" transform="translate(653 2546)"/></g><g transform="translate(-563 -2516)"><rect class="c" width="4" height="4" transform="translate(653 2546)"/></g><g transform="translate(-548 -2516)"><rect class="c" width="4" height="4" transform="translate(653 2546)"/></g><g transform="translate(-533 -2516)"><rect class="c" width="4" height="4" transform="translate(653 2546)"/></g><g transform="translate(-518 -2516)"><rect class="c" width="4" height="4" transform="translate(653 2546)"/></g><g transform="translate(-503 -2516)"><rect class="c" width="4" height="4" transform="translate(653 2546)"/></g><g transform="translate(-488 -2516)"><rect class="c" width="4" height="4" transform="translate(653 2546)"/></g><g transform="translate(-473 -2516)"><rect class="c" width="4" height="4" transform="translate(653 2546)"/></g><g transform="translate(-458 -2516)"><rect class="c" width="4" height="4" transform="translate(653 2546)"/></g><g transform="translate(-443 -2516)"><rect class="c" width="4" height="4" transform="translate(653 2546)"/></g><g transform="translate(-428 -2516)"><rect class="c" width="4" height="4" transform="translate(653 2546)"/></g><g transform="translate(-413 -2516)"><rect class="c" width="4" height="4" transform="translate(653 2546)"/></g><g transform="translate(-398 -2516)"><rect class="c" width="4" height="4" transform="translate(653 2546)"/></g><g transform="translate(-383 -2516)"><rect class="c" width="4" height="4" transform="translate(653 2546)"/></g><g transform="translate(-368 -2516)"><rect class="c" width="4" height="4" transform="translate(653 2546)"/></g><g transform="translate(-353 -2516)"><rect class="c" width="4" height="4" transform="translate(653 2546)"/></g><g transform="translate(-338 -2516)"><rect class="c" width="4" height="4" transform="translate(653 2546)"/></g><g transform="translate(-323 -2516)"><rect class="c" width="4" height="4" transform="translate(653 2546)"/></g><g transform="translate(-308 -2516)"><rect class="c" width="4" height="4" transform="translate(653 2546)"/></g><g transform="translate(-293 -2516)"><rect class="c" width="4" height="4" transform="translate(653 2546)"/></g><g transform="translate(-278 -2516)"><rect class="c" width="4" height="4" transform="translate(653 2546)"/></g><g transform="translate(-263 -2516)"><rect class="c" width="4" height="4" transform="translate(653 2546)"/></g><g transform="translate(-248 -2516)"><rect class="c" width="4" height="4" transform="translate(653 2546)"/></g><g transform="translate(-233 -2516)"><rect class="c" width="4" height="4" transform="translate(653 2546)"/></g><g transform="translate(-218 -2516)"><rect class="c" width="4" height="4" transform="translate(653 2546)"/></g><g transform="translate(-203 -2516)"><rect class="c" width="4" height="4" transform="translate(653 2546)"/></g><g transform="translate(-188 -2516)"><rect class="c" width="4" height="4" transform="translate(653 2546)"/></g><g transform="translate(-653 -2501)"><rect class="c" width="4" height="4" transform="translate(653 2546)"/></g><g transform="translate(-638 -2501)"><rect class="c" width="4" height="4" transform="translate(653 2546)"/></g><g transform="translate(-623 -2501)"><rect class="c" width="4" height="4" transform="translate(653 2546)"/></g><g transform="translate(-608 -2501)"><rect class="c" width="4" height="4" transform="translate(653 2546)"/></g><g transform="translate(-593 -2501)"><rect class="c" width="4" height="4" transform="translate(653 2546)"/></g><g transform="translate(-578 -2501)"><rect class="c" width="4" height="4" transform="translate(653 2546)"/></g><g transform="translate(-563 -2501)"><rect class="c" width="4" height="4" transform="translate(653 2546)"/></g><g transform="translate(-548 -2501)"><rect class="c" width="4" height="4" transform="translate(653 2546)"/></g><g transform="translate(-533 -2501)"><rect class="c" width="4" height="4" transform="translate(653 2546)"/></g><g transform="translate(-518 -2501)"><rect class="c" width="4" height="4" transform="translate(653 2546)"/></g><g transform="translate(-503 -2501)"><rect class="c" width="4" height="4" transform="translate(653 2546)"/></g><g transform="translate(-488 -2501)"><rect class="c" width="4" height="4" transform="translate(653 2546)"/></g><g transform="translate(-473 -2501)"><rect class="c" width="4" height="4" transform="translate(653 2546)"/></g><g transform="translate(-458 -2501)"><rect class="c" width="4" height="4" transform="translate(653 2546)"/></g><g transform="translate(-443 -2501)"><rect class="c" width="4" height="4" transform="translate(653 2546)"/></g><g transform="translate(-428 -2501)"><rect class="c" width="4" height="4" transform="translate(653 2546)"/></g><g transform="translate(-413 -2501)"><rect class="c" width="4" height="4" transform="translate(653 2546)"/></g><g transform="translate(-398 -2501)"><rect class="c" width="4" height="4" transform="translate(653 2546)"/></g><g transform="translate(-383 -2501)"><rect class="c" width="4" height="4" transform="translate(653 2546)"/></g><g transform="translate(-368 -2501)"><rect class="c" width="4" height="4" transform="translate(653 2546)"/></g><g transform="translate(-353 -2501)"><rect class="c" width="4" height="4" transform="translate(653 2546)"/></g><g transform="translate(-338 -2501)"><rect class="c" width="4" height="4" transform="translate(653 2546)"/></g><g transform="translate(-323 -2501)"><rect class="c" width="4" height="4" transform="translate(653 2546)"/></g><g transform="translate(-308 -2501)"><rect class="c" width="4" height="4" transform="translate(653 2546)"/></g><g transform="translate(-293 -2501)"><rect class="c" width="4" height="4" transform="translate(653 2546)"/></g><g transform="translate(-278 -2501)"><rect class="c" width="4" height="4" transform="translate(653 2546)"/></g><g transform="translate(-263 -2501)"><rect class="c" width="4" height="4" transform="translate(653 2546)"/></g><g transform="translate(-248 -2501)"><rect class="c" width="4" height="4" transform="translate(653 2546)"/></g><g transform="translate(-233 -2501)"><rect class="c" width="4" height="4" transform="translate(653 2546)"/></g><g transform="translate(-218 -2501)"><rect class="c" width="4" height="4" transform="translate(653 2546)"/></g><g transform="translate(-203 -2501)"><rect class="c" width="4" height="4" transform="translate(653 2546)"/></g><g transform="translate(-188 -2501)"><rect class="c" width="4" height="4" transform="translate(653 2546)"/></g><g transform="translate(-653 -2486)"><rect class="c" width="4" height="4" transform="translate(653 2546)"/></g><g transform="translate(-638 -2486)"><rect class="c" width="4" height="4" transform="translate(653 2546)"/></g><g transform="translate(-623 -2486)"><rect class="c" width="4" height="4" transform="translate(653 2546)"/></g><g transform="translate(-608 -2486)"><rect class="c" width="4" height="4" transform="translate(653 2546)"/></g><g transform="translate(-593 -2486)"><rect class="c" width="4" height="4" transform="translate(653 2546)"/></g><g transform="translate(-578 -2486)"><rect class="c" width="4" height="4" transform="translate(653 2546)"/></g><g transform="translate(-563 -2486)"><rect class="c" width="4" height="4" transform="translate(653 2546)"/></g><g transform="translate(-548 -2486)"><rect class="c" width="4" height="4" transform="translate(653 2546)"/></g><g transform="translate(-533 -2486)"><rect class="c" width="4" height="4" transform="translate(653 2546)"/></g><g transform="translate(-518 -2486)"><rect class="c" width="4" height="4" transform="translate(653 2546)"/></g><g transform="translate(-503 -2486)"><rect class="c" width="4" height="4" transform="translate(653 2546)"/></g><g transform="translate(-488 -2486)"><rect class="c" width="4" height="4" transform="translate(653 2546)"/></g><g transform="translate(-473 -2486)"><rect class="c" width="4" height="4" transform="translate(653 2546)"/></g><g transform="translate(-458 -2486)"><rect class="c" width="4" height="4" transform="translate(653 2546)"/></g><g transform="translate(-443 -2486)"><rect class="c" width="4" height="4" transform="translate(653 2546)"/></g><g transform="translate(-428 -2486)"><rect class="c" width="4" height="4" transform="translate(653 2546)"/></g><g transform="translate(-413 -2486)"><rect class="c" width="4" height="4" transform="translate(653 2546)"/></g><g transform="translate(-398 -2486)"><rect class="c" width="4" height="4" transform="translate(653 2546)"/></g><g transform="translate(-383 -2486)"><rect class="c" width="4" height="4" transform="translate(653 2546)"/></g><g transform="translate(-368 -2486)"><rect class="c" width="4" height="4" transform="translate(653 2546)"/></g><g transform="translate(-353 -2486)"><rect class="c" width="4" height="4" transform="translate(653 2546)"/></g><g transform="translate(-338 -2486)"><rect class="c" width="4" height="4" transform="translate(653 2546)"/></g><g transform="translate(-323 -2486)"><rect class="c" width="4" height="4" transform="translate(653 2546)"/></g><g transform="translate(-308 -2486)"><rect class="c" width="4" height="4" transform="translate(653 2546)"/></g><g transform="translate(-293 -2486)"><rect class="c" width="4" height="4" transform="translate(653 2546)"/></g><g transform="translate(-278 -2486)"><rect class="c" width="4" height="4" transform="translate(653 2546)"/></g><g transform="translate(-263 -2486)"><rect class="c" width="4" height="4" transform="translate(653 2546)"/></g><g transform="translate(-248 -2486)"><rect class="c" width="4" height="4" transform="translate(653 2546)"/></g><g transform="translate(-233 -2486)"><rect class="c" width="4" height="4" transform="translate(653 2546)"/></g><g transform="translate(-218 -2486)"><rect class="c" width="4" height="4" transform="translate(653 2546)"/></g><g transform="translate(-203 -2486)"><rect class="c" width="4" height="4" transform="translate(653 2546)"/></g><g transform="translate(-188 -2486)"><rect class="c" width="4" height="4" transform="translate(653 2546)"/></g><g transform="translate(-653 -2471)"><rect class="c" width="4" height="4" transform="translate(653 2546)"/></g><g transform="translate(-638 -2471)"><rect class="c" width="4" height="4" transform="translate(653 2546)"/></g><g transform="translate(-623 -2471)"><rect class="c" width="4" height="4" transform="translate(653 2546)"/></g><g transform="translate(-608 -2471)"><rect class="c" width="4" height="4" transform="translate(653 2546)"/></g><g transform="translate(-593 -2471)"><rect class="c" width="4" height="4" transform="translate(653 2546)"/></g><g transform="translate(-578 -2471)"><rect class="c" width="4" height="4" transform="translate(653 2546)"/></g><g transform="translate(-563 -2471)"><rect class="c" width="4" height="4" transform="translate(653 2546)"/></g><g transform="translate(-548 -2471)"><rect class="c" width="4" height="4" transform="translate(653 2546)"/></g><g transform="translate(-533 -2471)"><rect class="c" width="4" height="4" transform="translate(653 2546)"/></g><g transform="translate(-518 -2471)"><rect class="c" width="4" height="4" transform="translate(653 2546)"/></g><g transform="translate(-503 -2471)"><rect class="c" width="4" height="4" transform="translate(653 2546)"/></g><g transform="translate(-488 -2471)"><rect class="c" width="4" height="4" transform="translate(653 2546)"/></g><g transform="translate(-473 -2471)"><rect class="c" width="4" height="4" transform="translate(653 2546)"/></g><g transform="translate(-458 -2471)"><rect class="c" width="4" height="4" transform="translate(653 2546)"/></g><g transform="translate(-443 -2471)"><rect class="c" width="4" height="4" transform="translate(653 2546)"/></g><g transform="translate(-428 -2471)"><rect class="c" width="4" height="4" transform="translate(653 2546)"/></g><g transform="translate(-413 -2471)"><rect class="c" width="4" height="4" transform="translate(653 2546)"/></g><g transform="translate(-398 -2471)"><rect class="c" width="4" height="4" transform="translate(653 2546)"/></g><g transform="translate(-383 -2471)"><rect class="c" width="4" height="4" transform="translate(653 2546)"/></g><g transform="translate(-368 -2471)"><rect class="c" width="4" height="4" transform="translate(653 2546)"/></g><g transform="translate(-353 -2471)"><rect class="c" width="4" height="4" transform="translate(653 2546)"/></g><g transform="translate(-338 -2471)"><rect class="c" width="4" height="4" transform="translate(653 2546)"/></g><g transform="translate(-323 -2471)"><rect class="c" width="4" height="4" transform="translate(653 2546)"/></g><g transform="translate(-308 -2471)"><rect class="c" width="4" height="4" transform="translate(653 2546)"/></g><g transform="translate(-293 -2471)"><rect class="c" width="4" height="4" transform="translate(653 2546)"/></g><g transform="translate(-278 -2471)"><rect class="c" width="4" height="4" transform="translate(653 2546)"/></g><g transform="translate(-263 -2471)"><rect class="c" width="4" height="4" transform="translate(653 2546)"/></g><g transform="translate(-248 -2471)"><rect class="c" width="4" height="4" transform="translate(653 2546)"/></g><g transform="translate(-233 -2471)"><rect class="c" width="4" height="4" transform="translate(653 2546)"/></g><g transform="translate(-218 -2471)"><rect class="c" width="4" height="4" transform="translate(653 2546)"/></g><g transform="translate(-203 -2471)"><rect class="c" width="4" height="4" transform="translate(653 2546)"/></g><g transform="translate(-188 -2471)"><rect class="c" width="4" height="4" transform="translate(653 2546)"/></g><g transform="translate(-653 -2456)"><rect class="c" width="4" height="4" transform="translate(653 2546)"/></g><g transform="translate(-638 -2456)"><rect class="c" width="4" height="4" transform="translate(653 2546)"/></g><g transform="translate(-623 -2456)"><rect class="c" width="4" height="4" transform="translate(653 2546)"/></g><g transform="translate(-608 -2456)"><rect class="c" width="4" height="4" transform="translate(653 2546)"/></g><g transform="translate(-593 -2456)"><rect class="c" width="4" height="4" transform="translate(653 2546)"/></g><g transform="translate(-578 -2456)"><rect class="c" width="4" height="4" transform="translate(653 2546)"/></g><g transform="translate(-563 -2456)"><rect class="c" width="4" height="4" transform="translate(653 2546)"/></g><g transform="translate(-548 -2456)"><rect class="c" width="4" height="4" transform="translate(653 2546)"/></g><g transform="translate(-533 -2456)"><rect class="c" width="4" height="4" transform="translate(653 2546)"/></g><g transform="translate(-518 -2456)"><rect class="c" width="4" height="4" transform="translate(653 2546)"/></g><g transform="translate(-503 -2456)"><rect class="c" width="4" height="4" transform="translate(653 2546)"/></g><g transform="translate(-488 -2456)"><rect class="c" width="4" height="4" transform="translate(653 2546)"/></g><g transform="translate(-473 -2456)"><rect class="c" width="4" height="4" transform="translate(653 2546)"/></g><g transform="translate(-458 -2456)"><rect class="c" width="4" height="4" transform="translate(653 2546)"/></g><g transform="translate(-443 -2456)"><rect class="c" width="4" height="4" transform="translate(653 2546)"/></g><g transform="translate(-428 -2456)"><rect class="c" width="4" height="4" transform="translate(653 2546)"/></g><g transform="translate(-413 -2456)"><rect class="c" width="4" height="4" transform="translate(653 2546)"/></g><g transform="translate(-398 -2456)"><rect class="c" width="4" height="4" transform="translate(653 2546)"/></g><g transform="translate(-383 -2456)"><rect class="c" width="4" height="4" transform="translate(653 2546)"/></g><g transform="translate(-368 -2456)"><rect class="c" width="4" height="4" transform="translate(653 2546)"/></g><g transform="translate(-353 -2456)"><rect class="c" width="4" height="4" transform="translate(653 2546)"/></g><g transform="translate(-338 -2456)"><rect class="c" width="4" height="4" transform="translate(653 2546)"/></g><g transform="translate(-323 -2456)"><rect class="c" width="4" height="4" transform="translate(653 2546)"/></g><g transform="translate(-308 -2456)"><rect class="c" width="4" height="4" transform="translate(653 2546)"/></g><g transform="translate(-293 -2456)"><rect class="c" width="4" height="4" transform="translate(653 2546)"/></g><g transform="translate(-278 -2456)"><rect class="c" width="4" height="4" transform="translate(653 2546)"/></g><g transform="translate(-263 -2456)"><rect class="c" width="4" height="4" transform="translate(653 2546)"/></g><g transform="translate(-248 -2456)"><rect class="c" width="4" height="4" transform="translate(653 2546)"/></g><g transform="translate(-233 -2456)"><rect class="c" width="4" height="4" transform="translate(653 2546)"/></g><g transform="translate(-218 -2456)"><rect class="c" width="4" height="4" transform="translate(653 2546)"/></g><g transform="translate(-203 -2456)"><rect class="c" width="4" height="4" transform="translate(653 2546)"/></g><g transform="translate(-188 -2456)"><rect class="c" width="4" height="4" transform="translate(653 2546)"/></g><g transform="translate(-653 -2441)"><rect class="c" width="4" height="4" transform="translate(653 2546)"/></g><g transform="translate(-638 -2441)"><rect class="c" width="4" height="4" transform="translate(653 2546)"/></g><g transform="translate(-623 -2441)"><rect class="c" width="4" height="4" transform="translate(653 2546)"/></g><g transform="translate(-608 -2441)"><rect class="c" width="4" height="4" transform="translate(653 2546)"/></g><g transform="translate(-593 -2441)"><rect class="c" width="4" height="4" transform="translate(653 2546)"/></g><g transform="translate(-578 -2441)"><rect class="c" width="4" height="4" transform="translate(653 2546)"/></g><g transform="translate(-563 -2441)"><rect class="c" width="4" height="4" transform="translate(653 2546)"/></g><g transform="translate(-548 -2441)"><rect class="c" width="4" height="4" transform="translate(653 2546)"/></g><g transform="translate(-533 -2441)"><rect class="c" width="4" height="4" transform="translate(653 2546)"/></g><g transform="translate(-518 -2441)"><rect class="c" width="4" height="4" transform="translate(653 2546)"/></g><g transform="translate(-503 -2441)"><rect class="c" width="4" height="4" transform="translate(653 2546)"/></g><g transform="translate(-488 -2441)"><rect class="c" width="4" height="4" transform="translate(653 2546)"/></g><g transform="translate(-473 -2441)"><rect class="c" width="4" height="4" transform="translate(653 2546)"/></g><g transform="translate(-458 -2441)"><rect class="c" width="4" height="4" transform="translate(653 2546)"/></g><g transform="translate(-443 -2441)"><rect class="c" width="4" height="4" transform="translate(653 2546)"/></g><g transform="translate(-428 -2441)"><rect class="c" width="4" height="4" transform="translate(653 2546)"/></g><g transform="translate(-413 -2441)"><rect class="c" width="4" height="4" transform="translate(653 2546)"/></g><g transform="translate(-398 -2441)"><rect class="c" width="4" height="4" transform="translate(653 2546)"/></g><g transform="translate(-383 -2441)"><rect class="c" width="4" height="4" transform="translate(653 2546)"/></g><g transform="translate(-368 -2441)"><rect class="c" width="4" height="4" transform="translate(653 2546)"/></g><g transform="translate(-353 -2441)"><rect class="c" width="4" height="4" transform="translate(653 2546)"/></g><g transform="translate(-338 -2441)"><rect class="c" width="4" height="4" transform="translate(653 2546)"/></g><g transform="translate(-323 -2441)"><rect class="c" width="4" height="4" transform="translate(653 2546)"/></g><g transform="translate(-308 -2441)"><rect class="c" width="4" height="4" transform="translate(653 2546)"/></g><g transform="translate(-293 -2441)"><rect class="c" width="4" height="4" transform="translate(653 2546)"/></g><g transform="translate(-278 -2441)"><rect class="c" width="4" height="4" transform="translate(653 2546)"/></g><g transform="translate(-263 -2441)"><rect class="c" width="4" height="4" transform="translate(653 2546)"/></g><g transform="translate(-248 -2441)"><rect class="c" width="4" height="4" transform="translate(653 2546)"/></g><g transform="translate(-233 -2441)"><rect class="c" width="4" height="4" transform="translate(653 2546)"/></g><g transform="translate(-218 -2441)"><rect class="c" width="4" height="4" transform="translate(653 2546)"/></g><g transform="translate(-203 -2441)"><rect class="c" width="4" height="4" transform="translate(653 2546)"/></g><g transform="translate(-188 -2441)"><rect class="c" width="4" height="4" transform="translate(653 2546)"/></g><g transform="translate(-653 -2426)"><rect class="c" width="4" height="4" transform="translate(653 2546)"/></g><g transform="translate(-638 -2426)"><rect class="c" width="4" height="4" transform="translate(653 2546)"/></g><g transform="translate(-623 -2426)"><rect class="c" width="4" height="4" transform="translate(653 2546)"/></g><g transform="translate(-608 -2426)"><rect class="c" width="4" height="4" transform="translate(653 2546)"/></g><g transform="translate(-593 -2426)"><rect class="c" width="4" height="4" transform="translate(653 2546)"/></g><g transform="translate(-578 -2426)"><rect class="c" width="4" height="4" transform="translate(653 2546)"/></g><g transform="translate(-563 -2426)"><rect class="c" width="4" height="4" transform="translate(653 2546)"/></g><g transform="translate(-548 -2426)"><rect class="c" width="4" height="4" transform="translate(653 2546)"/></g><g transform="translate(-533 -2426)"><rect class="c" width="4" height="4" transform="translate(653 2546)"/></g><g transform="translate(-518 -2426)"><rect class="c" width="4" height="4" transform="translate(653 2546)"/></g><g transform="translate(-503 -2426)"><rect class="c" width="4" height="4" transform="translate(653 2546)"/></g><g transform="translate(-488 -2426)"><rect class="c" width="4" height="4" transform="translate(653 2546)"/></g><g transform="translate(-473 -2426)"><rect class="c" width="4" height="4" transform="translate(653 2546)"/></g><g transform="translate(-458 -2426)"><rect class="c" width="4" height="4" transform="translate(653 2546)"/></g><g transform="translate(-443 -2426)"><rect class="c" width="4" height="4" transform="translate(653 2546)"/></g><g transform="translate(-428 -2426)"><rect class="c" width="4" height="4" transform="translate(653 2546)"/></g><g transform="translate(-413 -2426)"><rect class="c" width="4" height="4" transform="translate(653 2546)"/></g><g transform="translate(-398 -2426)"><rect class="c" width="4" height="4" transform="translate(653 2546)"/></g><g transform="translate(-383 -2426)"><rect class="c" width="4" height="4" transform="translate(653 2546)"/></g><g transform="translate(-368 -2426)"><rect class="c" width="4" height="4" transform="translate(653 2546)"/></g><g transform="translate(-353 -2426)"><rect class="c" width="4" height="4" transform="translate(653 2546)"/></g><g transform="translate(-338 -2426)"><rect class="c" width="4" height="4" transform="translate(653 2546)"/></g><g transform="translate(-323 -2426)"><rect class="c" width="4" height="4" transform="translate(653 2546)"/></g><g transform="translate(-308 -2426)"><rect class="c" width="4" height="4" transform="translate(653 2546)"/></g><g transform="translate(-293 -2426)"><rect class="c" width="4" height="4" transform="translate(653 2546)"/></g><g transform="translate(-278 -2426)"><rect class="c" width="4" height="4" transform="translate(653 2546)"/></g><g transform="translate(-263 -2426)"><rect class="c" width="4" height="4" transform="translate(653 2546)"/></g><g transform="translate(-248 -2426)"><rect class="c" width="4" height="4" transform="translate(653 2546)"/></g><g transform="translate(-233 -2426)"><rect class="c" width="4" height="4" transform="translate(653 2546)"/></g><g transform="translate(-218 -2426)"><rect class="c" width="4" height="4" transform="translate(653 2546)"/></g><g transform="translate(-203 -2426)"><rect class="c" width="4" height="4" transform="translate(653 2546)"/></g><g transform="translate(-188 -2426)"><rect class="c" width="4" height="4" transform="translate(653 2546)"/></g><g transform="translate(-653 -2411)"><rect class="c" width="4" height="4" transform="translate(653 2546)"/></g><g transform="translate(-638 -2411)"><rect class="c" width="4" height="4" transform="translate(653 2546)"/></g><g transform="translate(-623 -2411)"><rect class="c" width="4" height="4" transform="translate(653 2546)"/></g><g transform="translate(-608 -2411)"><rect class="c" width="4" height="4" transform="translate(653 2546)"/></g><g transform="translate(-593 -2411)"><rect class="c" width="4" height="4" transform="translate(653 2546)"/></g><g transform="translate(-578 -2411)"><rect class="c" width="4" height="4" transform="translate(653 2546)"/></g><g transform="translate(-563 -2411)"><rect class="c" width="4" height="4" transform="translate(653 2546)"/></g><g transform="translate(-548 -2411)"><rect class="c" width="4" height="4" transform="translate(653 2546)"/></g><g transform="translate(-533 -2411)"><rect class="c" width="4" height="4" transform="translate(653 2546)"/></g><g transform="translate(-518 -2411)"><rect class="c" width="4" height="4" transform="translate(653 2546)"/></g><g transform="translate(-503 -2411)"><rect class="c" width="4" height="4" transform="translate(653 2546)"/></g><g transform="translate(-488 -2411)"><rect class="c" width="4" height="4" transform="translate(653 2546)"/></g><g transform="translate(-473 -2411)"><rect class="c" width="4" height="4" transform="translate(653 2546)"/></g><g transform="translate(-458 -2411)"><rect class="c" width="4" height="4" transform="translate(653 2546)"/></g><g transform="translate(-443 -2411)"><rect class="c" width="4" height="4" transform="translate(653 2546)"/></g><g transform="translate(-428 -2411)"><rect class="c" width="4" height="4" transform="translate(653 2546)"/></g><g transform="translate(-413 -2411)"><rect class="c" width="4" height="4" transform="translate(653 2546)"/></g><g transform="translate(-398 -2411)"><rect class="c" width="4" height="4" transform="translate(653 2546)"/></g><g transform="translate(-383 -2411)"><rect class="c" width="4" height="4" transform="translate(653 2546)"/></g><g transform="translate(-368 -2411)"><rect class="c" width="4" height="4" transform="translate(653 2546)"/></g><g transform="translate(-353 -2411)"><rect class="c" width="4" height="4" transform="translate(653 2546)"/></g><g transform="translate(-338 -2411)"><rect class="c" width="4" height="4" transform="translate(653 2546)"/></g><g transform="translate(-323 -2411)"><rect class="c" width="4" height="4" transform="translate(653 2546)"/></g><g transform="translate(-308 -2411)"><rect class="c" width="4" height="4" transform="translate(653 2546)"/></g><g transform="translate(-293 -2411)"><rect class="c" width="4" height="4" transform="translate(653 2546)"/></g><g transform="translate(-278 -2411)"><rect class="c" width="4" height="4" transform="translate(653 2546)"/></g><g transform="translate(-263 -2411)"><rect class="c" width="4" height="4" transform="translate(653 2546)"/></g><g transform="translate(-248 -2411)"><rect class="c" width="4" height="4" transform="translate(653 2546)"/></g><g transform="translate(-233 -2411)"><rect class="c" width="4" height="4" transform="translate(653 2546)"/></g><g transform="translate(-218 -2411)"><rect class="c" width="4" height="4" transform="translate(653 2546)"/></g><g transform="translate(-203 -2411)"><rect class="c" width="4" height="4" transform="translate(653 2546)"/></g><g transform="translate(-188 -2411)"><rect class="c" width="4" height="4" transform="translate(653 2546)"/></g><g transform="translate(-653 -2396)"><rect class="c" width="4" height="4" transform="translate(653 2546)"/></g><g transform="translate(-638 -2396)"><rect class="c" width="4" height="4" transform="translate(653 2546)"/></g><g transform="translate(-623 -2396)"><rect class="c" width="4" height="4" transform="translate(653 2546)"/></g><g transform="translate(-608 -2396)"><rect class="c" width="4" height="4" transform="translate(653 2546)"/></g><g transform="translate(-593 -2396)"><rect class="c" width="4" height="4" transform="translate(653 2546)"/></g><g transform="translate(-578 -2396)"><rect class="c" width="4" height="4" transform="translate(653 2546)"/></g><g transform="translate(-563 -2396)"><rect class="c" width="4" height="4" transform="translate(653 2546)"/></g><g transform="translate(-548 -2396)"><rect class="c" width="4" height="4" transform="translate(653 2546)"/></g><g transform="translate(-533 -2396)"><rect class="c" width="4" height="4" transform="translate(653 2546)"/></g><g transform="translate(-518 -2396)"><rect class="c" width="4" height="4" transform="translate(653 2546)"/></g><g transform="translate(-503 -2396)"><rect class="c" width="4" height="4" transform="translate(653 2546)"/></g><g transform="translate(-488 -2396)"><rect class="c" width="4" height="4" transform="translate(653 2546)"/></g><g transform="translate(-473 -2396)"><rect class="c" width="4" height="4" transform="translate(653 2546)"/></g><g transform="translate(-458 -2396)"><rect class="c" width="4" height="4" transform="translate(653 2546)"/></g><g transform="translate(-443 -2396)"><rect class="c" width="4" height="4" transform="translate(653 2546)"/></g><g transform="translate(-428 -2396)"><rect class="c" width="4" height="4" transform="translate(653 2546)"/></g><g transform="translate(-413 -2396)"><rect class="c" width="4" height="4" transform="translate(653 2546)"/></g><g transform="translate(-398 -2396)"><rect class="c" width="4" height="4" transform="translate(653 2546)"/></g><g transform="translate(-383 -2396)"><rect class="c" width="4" height="4" transform="translate(653 2546)"/></g><g transform="translate(-368 -2396)"><rect class="c" width="4" height="4" transform="translate(653 2546)"/></g><g transform="translate(-353 -2396)"><rect class="c" width="4" height="4" transform="translate(653 2546)"/></g><g transform="translate(-338 -2396)"><rect class="c" width="4" height="4" transform="translate(653 2546)"/></g><g transform="translate(-323 -2396)"><rect class="c" width="4" height="4" transform="translate(653 2546)"/></g><g transform="translate(-308 -2396)"><rect class="c" width="4" height="4" transform="translate(653 2546)"/></g><g transform="translate(-293 -2396)"><rect class="c" width="4" height="4" transform="translate(653 2546)"/></g><g transform="translate(-278 -2396)"><rect class="c" width="4" height="4" transform="translate(653 2546)"/></g><g transform="translate(-263 -2396)"><rect class="c" width="4" height="4" transform="translate(653 2546)"/></g><g transform="translate(-248 -2396)"><rect class="c" width="4" height="4" transform="translate(653 2546)"/></g><g transform="translate(-233 -2396)"><rect class="c" width="4" height="4" transform="translate(653 2546)"/></g><g transform="translate(-218 -2396)"><rect class="c" width="4" height="4" transform="translate(653 2546)"/></g><g transform="translate(-203 -2396)"><rect class="c" width="4" height="4" transform="translate(653 2546)"/></g><g transform="translate(-188 -2396)"><rect class="c" width="4" height="4" transform="translate(653 2546)"/></g><g transform="translate(-653 -2381)"><rect class="c" width="4" height="4" transform="translate(653 2546)"/></g><g transform="translate(-638 -2381)"><rect class="c" width="4" height="4" transform="translate(653 2546)"/></g><g transform="translate(-623 -2381)"><rect class="c" width="4" height="4" transform="translate(653 2546)"/></g><g transform="translate(-608 -2381)"><rect class="c" width="4" height="4" transform="translate(653 2546)"/></g><g transform="translate(-593 -2381)"><rect class="c" width="4" height="4" transform="translate(653 2546)"/></g><g transform="translate(-578 -2381)"><rect class="c" width="4" height="4" transform="translate(653 2546)"/></g><g transform="translate(-563 -2381)"><rect class="c" width="4" height="4" transform="translate(653 2546)"/></g><g transform="translate(-548 -2381)"><rect class="c" width="4" height="4" transform="translate(653 2546)"/></g><g transform="translate(-533 -2381)"><rect class="c" width="4" height="4" transform="translate(653 2546)"/></g><g transform="translate(-518 -2381)"><rect class="c" width="4" height="4" transform="translate(653 2546)"/></g><g transform="translate(-503 -2381)"><rect class="c" width="4" height="4" transform="translate(653 2546)"/></g><g transform="translate(-488 -2381)"><rect class="c" width="4" height="4" transform="translate(653 2546)"/></g><g transform="translate(-473 -2381)"><rect class="c" width="4" height="4" transform="translate(653 2546)"/></g><g transform="translate(-458 -2381)"><rect class="c" width="4" height="4" transform="translate(653 2546)"/></g><g transform="translate(-443 -2381)"><rect class="c" width="4" height="4" transform="translate(653 2546)"/></g><g transform="translate(-428 -2381)"><rect class="c" width="4" height="4" transform="translate(653 2546)"/></g><g transform="translate(-413 -2381)"><rect class="c" width="4" height="4" transform="translate(653 2546)"/></g><g transform="translate(-398 -2381)"><rect class="c" width="4" height="4" transform="translate(653 2546)"/></g><g transform="translate(-383 -2381)"><rect class="c" width="4" height="4" transform="translate(653 2546)"/></g><g transform="translate(-368 -2381)"><rect class="c" width="4" height="4" transform="translate(653 2546)"/></g><g transform="translate(-353 -2381)"><rect class="c" width="4" height="4" transform="translate(653 2546)"/></g><g transform="translate(-338 -2381)"><rect class="c" width="4" height="4" transform="translate(653 2546)"/></g><g transform="translate(-323 -2381)"><rect class="c" width="4" height="4" transform="translate(653 2546)"/></g><g transform="translate(-308 -2381)"><rect class="c" width="4" height="4" transform="translate(653 2546)"/></g><g transform="translate(-293 -2381)"><rect class="c" width="4" height="4" transform="translate(653 2546)"/></g><g transform="translate(-278 -2381)"><rect class="c" width="4" height="4" transform="translate(653 2546)"/></g><g transform="translate(-263 -2381)"><rect class="c" width="4" height="4" transform="translate(653 2546)"/></g><g transform="translate(-248 -2381)"><rect class="c" width="4" height="4" transform="translate(653 2546)"/></g><g transform="translate(-233 -2381)"><rect class="c" width="4" height="4" transform="translate(653 2546)"/></g><g transform="translate(-218 -2381)"><rect class="c" width="4" height="4" transform="translate(653 2546)"/></g><g transform="translate(-203 -2381)"><rect class="c" width="4" height="4" transform="translate(653 2546)"/></g><g transform="translate(-188 -2381)"><rect class="c" width="4" height="4" transform="translate(653 2546)"/></g><g transform="translate(-653 -2366)"><rect class="c" width="4" height="4" transform="translate(653 2546)"/></g><g transform="translate(-638 -2366)"><rect class="c" width="4" height="4" transform="translate(653 2546)"/></g><g transform="translate(-623 -2366)"><rect class="c" width="4" height="4" transform="translate(653 2546)"/></g><g transform="translate(-608 -2366)"><rect class="c" width="4" height="4" transform="translate(653 2546)"/></g><g transform="translate(-593 -2366)"><rect class="c" width="4" height="4" transform="translate(653 2546)"/></g><g transform="translate(-578 -2366)"><rect class="c" width="4" height="4" transform="translate(653 2546)"/></g><g transform="translate(-563 -2366)"><rect class="c" width="4" height="4" transform="translate(653 2546)"/></g><g transform="translate(-548 -2366)"><rect class="c" width="4" height="4" transform="translate(653 2546)"/></g><g transform="translate(-533 -2366)"><rect class="c" width="4" height="4" transform="translate(653 2546)"/></g><g transform="translate(-518 -2366)"><rect class="c" width="4" height="4" transform="translate(653 2546)"/></g><g transform="translate(-503 -2366)"><rect class="c" width="4" height="4" transform="translate(653 2546)"/></g><g transform="translate(-488 -2366)"><rect class="c" width="4" height="4" transform="translate(653 2546)"/></g><g transform="translate(-473 -2366)"><rect class="c" width="4" height="4" transform="translate(653 2546)"/></g><g transform="translate(-458 -2366)"><rect class="c" width="4" height="4" transform="translate(653 2546)"/></g><g transform="translate(-443 -2366)"><rect class="c" width="4" height="4" transform="translate(653 2546)"/></g><g transform="translate(-428 -2366)"><rect class="c" width="4" height="4" transform="translate(653 2546)"/></g><g transform="translate(-413 -2366)"><rect class="c" width="4" height="4" transform="translate(653 2546)"/></g><g transform="translate(-398 -2366)"><rect class="c" width="4" height="4" transform="translate(653 2546)"/></g><g transform="translate(-383 -2366)"><rect class="c" width="4" height="4" transform="translate(653 2546)"/></g><g transform="translate(-368 -2366)"><rect class="c" width="4" height="4" transform="translate(653 2546)"/></g><g transform="translate(-353 -2366)"><rect class="c" width="4" height="4" transform="translate(653 2546)"/></g><g transform="translate(-338 -2366)"><rect class="c" width="4" height="4" transform="translate(653 2546)"/></g><g transform="translate(-323 -2366)"><rect class="c" width="4" height="4" transform="translate(653 2546)"/></g><g transform="translate(-308 -2366)"><rect class="c" width="4" height="4" transform="translate(653 2546)"/></g><g transform="translate(-293 -2366)"><rect class="c" width="4" height="4" transform="translate(653 2546)"/></g><g transform="translate(-278 -2366)"><rect class="c" width="4" height="4" transform="translate(653 2546)"/></g><g transform="translate(-263 -2366)"><rect class="c" width="4" height="4" transform="translate(653 2546)"/></g><g transform="translate(-248 -2366)"><rect class="c" width="4" height="4" transform="translate(653 2546)"/></g><g transform="translate(-233 -2366)"><rect class="c" width="4" height="4" transform="translate(653 2546)"/></g><g transform="translate(-218 -2366)"><rect class="c" width="4" height="4" transform="translate(653 2546)"/></g><g transform="translate(-203 -2366)"><rect class="c" width="4" height="4" transform="translate(653 2546)"/></g><g transform="translate(-188 -2366)"><rect class="c" width="4" height="4" transform="translate(653 2546)"/></g><g transform="translate(-653 -2351)"><rect class="c" width="4" height="4" transform="translate(653 2546)"/></g><g transform="translate(-638 -2351)"><rect class="c" width="4" height="4" transform="translate(653 2546)"/></g><g transform="translate(-623 -2351)"><rect class="c" width="4" height="4" transform="translate(653 2546)"/></g><g transform="translate(-608 -2351)"><rect class="c" width="4" height="4" transform="translate(653 2546)"/></g><g transform="translate(-593 -2351)"><rect class="c" width="4" height="4" transform="translate(653 2546)"/></g><g transform="translate(-578 -2351)"><rect class="c" width="4" height="4" transform="translate(653 2546)"/></g><g transform="translate(-563 -2351)"><rect class="c" width="4" height="4" transform="translate(653 2546)"/></g><g transform="translate(-548 -2351)"><rect class="c" width="4" height="4" transform="translate(653 2546)"/></g><g transform="translate(-533 -2351)"><rect class="c" width="4" height="4" transform="translate(653 2546)"/></g><g transform="translate(-518 -2351)"><rect class="c" width="4" height="4" transform="translate(653 2546)"/></g><g transform="translate(-503 -2351)"><rect class="c" width="4" height="4" transform="translate(653 2546)"/></g><g transform="translate(-488 -2351)"><rect class="c" width="4" height="4" transform="translate(653 2546)"/></g><g transform="translate(-473 -2351)"><rect class="c" width="4" height="4" transform="translate(653 2546)"/></g><g transform="translate(-458 -2351)"><rect class="c" width="4" height="4" transform="translate(653 2546)"/></g><g transform="translate(-443 -2351)"><rect class="c" width="4" height="4" transform="translate(653 2546)"/></g><g transform="translate(-428 -2351)"><rect class="c" width="4" height="4" transform="translate(653 2546)"/></g><g transform="translate(-413 -2351)"><rect class="c" width="4" height="4" transform="translate(653 2546)"/></g><g transform="translate(-398 -2351)"><rect class="c" width="4" height="4" transform="translate(653 2546)"/></g><g transform="translate(-383 -2351)"><rect class="c" width="4" height="4" transform="translate(653 2546)"/></g><g transform="translate(-368 -2351)"><rect class="c" width="4" height="4" transform="translate(653 2546)"/></g><g transform="translate(-353 -2351)"><rect class="c" width="4" height="4" transform="translate(653 2546)"/></g><g transform="translate(-338 -2351)"><rect class="c" width="4" height="4" transform="translate(653 2546)"/></g><g transform="translate(-323 -2351)"><rect class="c" width="4" height="4" transform="translate(653 2546)"/></g><g transform="translate(-308 -2351)"><rect class="c" width="4" height="4" transform="translate(653 2546)"/></g><g transform="translate(-293 -2351)"><rect class="c" width="4" height="4" transform="translate(653 2546)"/></g><g transform="translate(-278 -2351)"><rect class="c" width="4" height="4" transform="translate(653 2546)"/></g><g transform="translate(-263 -2351)"><rect class="c" width="4" height="4" transform="translate(653 2546)"/></g><g transform="translate(-248 -2351)"><rect class="c" width="4" height="4" transform="translate(653 2546)"/></g><g transform="translate(-233 -2351)"><rect class="c" width="4" height="4" transform="translate(653 2546)"/></g><g transform="translate(-218 -2351)"><rect class="c" width="4" height="4" transform="translate(653 2546)"/></g><g transform="translate(-203 -2351)"><rect class="c" width="4" height="4" transform="translate(653 2546)"/></g><g transform="translate(-188 -2351)"><rect class="c" width="4" height="4" transform="translate(653 2546)"/></g><g transform="translate(-653 -2336)"><rect class="c" width="4" height="4" transform="translate(653 2546)"/></g><g transform="translate(-638 -2336)"><rect class="c" width="4" height="4" transform="translate(653 2546)"/></g><g transform="translate(-623 -2336)"><rect class="c" width="4" height="4" transform="translate(653 2546)"/></g><g transform="translate(-608 -2336)"><rect class="c" width="4" height="4" transform="translate(653 2546)"/></g><g transform="translate(-593 -2336)"><rect class="c" width="4" height="4" transform="translate(653 2546)"/></g><g transform="translate(-578 -2336)"><rect class="c" width="4" height="4" transform="translate(653 2546)"/></g><g transform="translate(-563 -2336)"><rect class="c" width="4" height="4" transform="translate(653 2546)"/></g><g transform="translate(-548 -2336)"><rect class="c" width="4" height="4" transform="translate(653 2546)"/></g><g transform="translate(-533 -2336)"><rect class="c" width="4" height="4" transform="translate(653 2546)"/></g><g transform="translate(-518 -2336)"><rect class="c" width="4" height="4" transform="translate(653 2546)"/></g><g transform="translate(-503 -2336)"><rect class="c" width="4" height="4" transform="translate(653 2546)"/></g><g transform="translate(-488 -2336)"><rect class="c" width="4" height="4" transform="translate(653 2546)"/></g><g transform="translate(-473 -2336)"><rect class="c" width="4" height="4" transform="translate(653 2546)"/></g><g transform="translate(-458 -2336)"><rect class="c" width="4" height="4" transform="translate(653 2546)"/></g><g transform="translate(-443 -2336)"><rect class="c" width="4" height="4" transform="translate(653 2546)"/></g><g transform="translate(-428 -2336)"><rect class="c" width="4" height="4" transform="translate(653 2546)"/></g><g transform="translate(-413 -2336)"><rect class="c" width="4" height="4" transform="translate(653 2546)"/></g><g transform="translate(-398 -2336)"><rect class="c" width="4" height="4" transform="translate(653 2546)"/></g><g transform="translate(-383 -2336)"><rect class="c" width="4" height="4" transform="translate(653 2546)"/></g><g transform="translate(-368 -2336)"><rect class="c" width="4" height="4" transform="translate(653 2546)"/></g><g transform="translate(-353 -2336)"><rect class="c" width="4" height="4" transform="translate(653 2546)"/></g><g transform="translate(-338 -2336)"><rect class="c" width="4" height="4" transform="translate(653 2546)"/></g><g transform="translate(-323 -2336)"><rect class="c" width="4" height="4" transform="translate(653 2546)"/></g><g transform="translate(-308 -2336)"><rect class="c" width="4" height="4" transform="translate(653 2546)"/></g><g transform="translate(-293 -2336)"><rect class="c" width="4" height="4" transform="translate(653 2546)"/></g><g transform="translate(-278 -2336)"><rect class="c" width="4" height="4" transform="translate(653 2546)"/></g><g transform="translate(-263 -2336)"><rect class="c" width="4" height="4" transform="translate(653 2546)"/></g><g transform="translate(-248 -2336)"><rect class="c" width="4" height="4" transform="translate(653 2546)"/></g><g transform="translate(-233 -2336)"><rect class="c" width="4" height="4" transform="translate(653 2546)"/></g><g transform="translate(-218 -2336)"><rect class="c" width="4" height="4" transform="translate(653 2546)"/></g><g transform="translate(-203 -2336)"><rect class="c" width="4" height="4" transform="translate(653 2546)"/></g><g transform="translate(-188 -2336)"><rect class="c" width="4" height="4" transform="translate(653 2546)"/></g><g transform="translate(-653 -2321)"><rect class="c" width="4" height="4" transform="translate(653 2546)"/></g><g transform="translate(-638 -2321)"><rect class="c" width="4" height="4" transform="translate(653 2546)"/></g><g transform="translate(-623 -2321)"><rect class="c" width="4" height="4" transform="translate(653 2546)"/></g><g transform="translate(-608 -2321)"><rect class="c" width="4" height="4" transform="translate(653 2546)"/></g><g transform="translate(-593 -2321)"><rect class="c" width="4" height="4" transform="translate(653 2546)"/></g><g transform="translate(-578 -2321)"><rect class="c" width="4" height="4" transform="translate(653 2546)"/></g><g transform="translate(-563 -2321)"><rect class="c" width="4" height="4" transform="translate(653 2546)"/></g><g transform="translate(-548 -2321)"><rect class="c" width="4" height="4" transform="translate(653 2546)"/></g><g transform="translate(-533 -2321)"><rect class="c" width="4" height="4" transform="translate(653 2546)"/></g><g transform="translate(-518 -2321)"><rect class="c" width="4" height="4" transform="translate(653 2546)"/></g><g transform="translate(-503 -2321)"><rect class="c" width="4" height="4" transform="translate(653 2546)"/></g><g transform="translate(-488 -2321)"><rect class="c" width="4" height="4" transform="translate(653 2546)"/></g><g transform="translate(-473 -2321)"><rect class="c" width="4" height="4" transform="translate(653 2546)"/></g><g transform="translate(-458 -2321)"><rect class="c" width="4" height="4" transform="translate(653 2546)"/></g><g transform="translate(-443 -2321)"><rect class="c" width="4" height="4" transform="translate(653 2546)"/></g><g transform="translate(-428 -2321)"><rect class="c" width="4" height="4" transform="translate(653 2546)"/></g><g transform="translate(-413 -2321)"><rect class="c" width="4" height="4" transform="translate(653 2546)"/></g><g transform="translate(-398 -2321)"><rect class="c" width="4" height="4" transform="translate(653 2546)"/></g><g transform="translate(-383 -2321)"><rect class="c" width="4" height="4" transform="translate(653 2546)"/></g><g transform="translate(-368 -2321)"><rect class="c" width="4" height="4" transform="translate(653 2546)"/></g><g transform="translate(-353 -2321)"><rect class="c" width="4" height="4" transform="translate(653 2546)"/></g><g transform="translate(-338 -2321)"><rect class="c" width="4" height="4" transform="translate(653 2546)"/></g><g transform="translate(-323 -2321)"><rect class="c" width="4" height="4" transform="translate(653 2546)"/></g><g transform="translate(-308 -2321)"><rect class="c" width="4" height="4" transform="translate(653 2546)"/></g><g transform="translate(-293 -2321)"><rect class="c" width="4" height="4" transform="translate(653 2546)"/></g><g transform="translate(-278 -2321)"><rect class="c" width="4" height="4" transform="translate(653 2546)"/></g><g transform="translate(-263 -2321)"><rect class="c" width="4" height="4" transform="translate(653 2546)"/></g><g transform="translate(-248 -2321)"><rect class="c" width="4" height="4" transform="translate(653 2546)"/></g><g transform="translate(-233 -2321)"><rect class="c" width="4" height="4" transform="translate(653 2546)"/></g><g transform="translate(-218 -2321)"><rect class="c" width="4" height="4" transform="translate(653 2546)"/></g><g transform="translate(-203 -2321)"><rect class="c" width="4" height="4" transform="translate(653 2546)"/></g><g transform="translate(-188 -2321)"><rect class="c" width="4" height="4" transform="translate(653 2546)"/></g><g transform="translate(-653 -2306)"><rect class="c" width="4" height="4" transform="translate(653 2546)"/></g><g transform="translate(-638 -2306)"><rect class="c" width="4" height="4" transform="translate(653 2546)"/></g><g transform="translate(-623 -2306)"><rect class="c" width="4" height="4" transform="translate(653 2546)"/></g><g transform="translate(-608 -2306)"><rect class="c" width="4" height="4" transform="translate(653 2546)"/></g><g transform="translate(-593 -2306)"><rect class="c" width="4" height="4" transform="translate(653 2546)"/></g><g transform="translate(-578 -2306)"><rect class="c" width="4" height="4" transform="translate(653 2546)"/></g><g transform="translate(-563 -2306)"><rect class="c" width="4" height="4" transform="translate(653 2546)"/></g><g transform="translate(-548 -2306)"><rect class="c" width="4" height="4" transform="translate(653 2546)"/></g><g transform="translate(-533 -2306)"><rect class="c" width="4" height="4" transform="translate(653 2546)"/></g><g transform="translate(-518 -2306)"><rect class="c" width="4" height="4" transform="translate(653 2546)"/></g><g transform="translate(-503 -2306)"><rect class="c" width="4" height="4" transform="translate(653 2546)"/></g><g transform="translate(-488 -2306)"><rect class="c" width="4" height="4" transform="translate(653 2546)"/></g><g transform="translate(-473 -2306)"><rect class="c" width="4" height="4" transform="translate(653 2546)"/></g><g transform="translate(-458 -2306)"><rect class="c" width="4" height="4" transform="translate(653 2546)"/></g><g transform="translate(-443 -2306)"><rect class="c" width="4" height="4" transform="translate(653 2546)"/></g><g transform="translate(-428 -2306)"><rect class="c" width="4" height="4" transform="translate(653 2546)"/></g><g transform="translate(-413 -2306)"><rect class="c" width="4" height="4" transform="translate(653 2546)"/></g><g transform="translate(-398 -2306)"><rect class="c" width="4" height="4" transform="translate(653 2546)"/></g><g transform="translate(-383 -2306)"><rect class="c" width="4" height="4" transform="translate(653 2546)"/></g><g transform="translate(-368 -2306)"><rect class="c" width="4" height="4" transform="translate(653 2546)"/></g><g transform="translate(-353 -2306)"><rect class="c" width="4" height="4" transform="translate(653 2546)"/></g><g transform="translate(-338 -2306)"><rect class="c" width="4" height="4" transform="translate(653 2546)"/></g><g transform="translate(-323 -2306)"><rect class="c" width="4" height="4" transform="translate(653 2546)"/></g><g transform="translate(-308 -2306)"><rect class="c" width="4" height="4" transform="translate(653 2546)"/></g><g transform="translate(-293 -2306)"><rect class="c" width="4" height="4" transform="translate(653 2546)"/></g><g transform="translate(-278 -2306)"><rect class="c" width="4" height="4" transform="translate(653 2546)"/></g><g transform="translate(-263 -2306)"><rect class="c" width="4" height="4" transform="translate(653 2546)"/></g><g transform="translate(-248 -2306)"><rect class="c" width="4" height="4" transform="translate(653 2546)"/></g><g transform="translate(-233 -2306)"><rect class="c" width="4" height="4" transform="translate(653 2546)"/></g><g transform="translate(-218 -2306)"><rect class="c" width="4" height="4" transform="translate(653 2546)"/></g><g transform="translate(-203 -2306)"><rect class="c" width="4" height="4" transform="translate(653 2546)"/></g><g transform="translate(-188 -2306)"><rect class="c" width="4" height="4" transform="translate(653 2546)"/></g><g transform="translate(-653 -2291)"><rect class="c" width="4" height="4" transform="translate(653 2546)"/></g><g transform="translate(-638 -2291)"><rect class="c" width="4" height="4" transform="translate(653 2546)"/></g><g transform="translate(-623 -2291)"><rect class="c" width="4" height="4" transform="translate(653 2546)"/></g><g transform="translate(-608 -2291)"><rect class="c" width="4" height="4" transform="translate(653 2546)"/></g><g transform="translate(-593 -2291)"><rect class="c" width="4" height="4" transform="translate(653 2546)"/></g><g transform="translate(-578 -2291)"><rect class="c" width="4" height="4" transform="translate(653 2546)"/></g><g transform="translate(-563 -2291)"><rect class="c" width="4" height="4" transform="translate(653 2546)"/></g><g transform="translate(-548 -2291)"><rect class="c" width="4" height="4" transform="translate(653 2546)"/></g><g transform="translate(-533 -2291)"><rect class="c" width="4" height="4" transform="translate(653 2546)"/></g><g transform="translate(-518 -2291)"><rect class="c" width="4" height="4" transform="translate(653 2546)"/></g><g transform="translate(-503 -2291)"><rect class="c" width="4" height="4" transform="translate(653 2546)"/></g><g transform="translate(-488 -2291)"><rect class="c" width="4" height="4" transform="translate(653 2546)"/></g><g transform="translate(-473 -2291)"><rect class="c" width="4" height="4" transform="translate(653 2546)"/></g><g transform="translate(-458 -2291)"><rect class="c" width="4" height="4" transform="translate(653 2546)"/></g><g transform="translate(-443 -2291)"><rect class="c" width="4" height="4" transform="translate(653 2546)"/></g><g transform="translate(-428 -2291)"><rect class="c" width="4" height="4" transform="translate(653 2546)"/></g><g transform="translate(-413 -2291)"><rect class="c" width="4" height="4" transform="translate(653 2546)"/></g><g transform="translate(-398 -2291)"><rect class="c" width="4" height="4" transform="translate(653 2546)"/></g><g transform="translate(-383 -2291)"><rect class="c" width="4" height="4" transform="translate(653 2546)"/></g><g transform="translate(-368 -2291)"><rect class="c" width="4" height="4" transform="translate(653 2546)"/></g><g transform="translate(-353 -2291)"><rect class="c" width="4" height="4" transform="translate(653 2546)"/></g><g transform="translate(-338 -2291)"><rect class="c" width="4" height="4" transform="translate(653 2546)"/></g><g transform="translate(-323 -2291)"><rect class="c" width="4" height="4" transform="translate(653 2546)"/></g><g transform="translate(-308 -2291)"><rect class="c" width="4" height="4" transform="translate(653 2546)"/></g><g transform="translate(-293 -2291)"><rect class="c" width="4" height="4" transform="translate(653 2546)"/></g><g transform="translate(-278 -2291)"><rect class="c" width="4" height="4" transform="translate(653 2546)"/></g><g transform="translate(-263 -2291)"><rect class="c" width="4" height="4" transform="translate(653 2546)"/></g><g transform="translate(-248 -2291)"><rect class="c" width="4" height="4" transform="translate(653 2546)"/></g><g transform="translate(-233 -2291)"><rect class="c" width="4" height="4" transform="translate(653 2546)"/></g><g transform="translate(-218 -2291)"><rect class="c" width="4" height="4" transform="translate(653 2546)"/></g><g transform="translate(-203 -2291)"><rect class="c" width="4" height="4" transform="translate(653 2546)"/></g><g transform="translate(-188 -2291)"><rect class="c" width="4" height="4" transform="translate(653 2546)"/></g><g transform="translate(-653 -2276)"><rect class="c" width="4" height="4" transform="translate(653 2546)"/></g><g transform="translate(-638 -2276)"><rect class="c" width="4" height="4" transform="translate(653 2546)"/></g><g transform="translate(-623 -2276)"><rect class="c" width="4" height="4" transform="translate(653 2546)"/></g><g transform="translate(-608 -2276)"><rect class="c" width="4" height="4" transform="translate(653 2546)"/></g><g transform="translate(-593 -2276)"><rect class="c" width="4" height="4" transform="translate(653 2546)"/></g><g transform="translate(-578 -2276)"><rect class="c" width="4" height="4" transform="translate(653 2546)"/></g><g transform="translate(-563 -2276)"><rect class="c" width="4" height="4" transform="translate(653 2546)"/></g><g transform="translate(-548 -2276)"><rect class="c" width="4" height="4" transform="translate(653 2546)"/></g><g transform="translate(-533 -2276)"><rect class="c" width="4" height="4" transform="translate(653 2546)"/></g><g transform="translate(-518 -2276)"><rect class="c" width="4" height="4" transform="translate(653 2546)"/></g><g transform="translate(-503 -2276)"><rect class="c" width="4" height="4" transform="translate(653 2546)"/></g><g transform="translate(-488 -2276)"><rect class="c" width="4" height="4" transform="translate(653 2546)"/></g><g transform="translate(-473 -2276)"><rect class="c" width="4" height="4" transform="translate(653 2546)"/></g><g transform="translate(-458 -2276)"><rect class="c" width="4" height="4" transform="translate(653 2546)"/></g><g transform="translate(-443 -2276)"><rect class="c" width="4" height="4" transform="translate(653 2546)"/></g><g transform="translate(-428 -2276)"><rect class="c" width="4" height="4" transform="translate(653 2546)"/></g><g transform="translate(-413 -2276)"><rect class="c" width="4" height="4" transform="translate(653 2546)"/></g><g transform="translate(-398 -2276)"><rect class="c" width="4" height="4" transform="translate(653 2546)"/></g><g transform="translate(-383 -2276)"><rect class="c" width="4" height="4" transform="translate(653 2546)"/></g><g transform="translate(-368 -2276)"><rect class="c" width="4" height="4" transform="translate(653 2546)"/></g><g transform="translate(-353 -2276)"><rect class="c" width="4" height="4" transform="translate(653 2546)"/></g><g transform="translate(-338 -2276)"><rect class="c" width="4" height="4" transform="translate(653 2546)"/></g><g transform="translate(-323 -2276)"><rect class="c" width="4" height="4" transform="translate(653 2546)"/></g><g transform="translate(-308 -2276)"><rect class="c" width="4" height="4" transform="translate(653 2546)"/></g><g transform="translate(-293 -2276)"><rect class="c" width="4" height="4" transform="translate(653 2546)"/></g><g transform="translate(-278 -2276)"><rect class="c" width="4" height="4" transform="translate(653 2546)"/></g><g transform="translate(-263 -2276)"><rect class="c" width="4" height="4" transform="translate(653 2546)"/></g><g transform="translate(-248 -2276)"><rect class="c" width="4" height="4" transform="translate(653 2546)"/></g><g transform="translate(-233 -2276)"><rect class="c" width="4" height="4" transform="translate(653 2546)"/></g><g transform="translate(-218 -2276)"><rect class="c" width="4" height="4" transform="translate(653 2546)"/></g><g transform="translate(-203 -2276)"><rect class="c" width="4" height="4" transform="translate(653 2546)"/></g><g transform="translate(-188 -2276)"><rect class="c" width="4" height="4" transform="translate(653 2546)"/></g><g transform="translate(-653 -2261)"><rect class="c" width="4" height="4" transform="translate(653 2546)"/></g><g transform="translate(-638 -2261)"><rect class="c" width="4" height="4" transform="translate(653 2546)"/></g><g transform="translate(-623 -2261)"><rect class="c" width="4" height="4" transform="translate(653 2546)"/></g><g transform="translate(-608 -2261)"><rect class="c" width="4" height="4" transform="translate(653 2546)"/></g><g transform="translate(-593 -2261)"><rect class="c" width="4" height="4" transform="translate(653 2546)"/></g><g transform="translate(-578 -2261)"><rect class="c" width="4" height="4" transform="translate(653 2546)"/></g><g transform="translate(-563 -2261)"><rect class="c" width="4" height="4" transform="translate(653 2546)"/></g><g transform="translate(-548 -2261)"><rect class="c" width="4" height="4" transform="translate(653 2546)"/></g><g transform="translate(-533 -2261)"><rect class="c" width="4" height="4" transform="translate(653 2546)"/></g><g transform="translate(-518 -2261)"><rect class="c" width="4" height="4" transform="translate(653 2546)"/></g><g transform="translate(-503 -2261)"><rect class="c" width="4" height="4" transform="translate(653 2546)"/></g><g transform="translate(-488 -2261)"><rect class="c" width="4" height="4" transform="translate(653 2546)"/></g><g transform="translate(-473 -2261)"><rect class="c" width="4" height="4" transform="translate(653 2546)"/></g><g transform="translate(-458 -2261)"><rect class="c" width="4" height="4" transform="translate(653 2546)"/></g><g transform="translate(-443 -2261)"><rect class="c" width="4" height="4" transform="translate(653 2546)"/></g><g transform="translate(-428 -2261)"><rect class="c" width="4" height="4" transform="translate(653 2546)"/></g><g transform="translate(-413 -2261)"><rect class="c" width="4" height="4" transform="translate(653 2546)"/></g><g transform="translate(-398 -2261)"><rect class="c" width="4" height="4" transform="translate(653 2546)"/></g><g transform="translate(-383 -2261)"><rect class="c" width="4" height="4" transform="translate(653 2546)"/></g><g transform="translate(-368 -2261)"><rect class="c" width="4" height="4" transform="translate(653 2546)"/></g><g transform="translate(-353 -2261)"><rect class="c" width="4" height="4" transform="translate(653 2546)"/></g><g transform="translate(-338 -2261)"><rect class="c" width="4" height="4" transform="translate(653 2546)"/></g><g transform="translate(-323 -2261)"><rect class="c" width="4" height="4" transform="translate(653 2546)"/></g><g transform="translate(-308 -2261)"><rect class="c" width="4" height="4" transform="translate(653 2546)"/></g><g transform="translate(-293 -2261)"><rect class="c" width="4" height="4" transform="translate(653 2546)"/></g><g transform="translate(-278 -2261)"><rect class="c" width="4" height="4" transform="translate(653 2546)"/></g><g transform="translate(-263 -2261)"><rect class="c" width="4" height="4" transform="translate(653 2546)"/></g><g transform="translate(-248 -2261)"><rect class="c" width="4" height="4" transform="translate(653 2546)"/></g><g transform="translate(-233 -2261)"><rect class="c" width="4" height="4" transform="translate(653 2546)"/></g><g transform="translate(-218 -2261)"><rect class="c" width="4" height="4" transform="translate(653 2546)"/></g><g transform="translate(-203 -2261)"><rect class="c" width="4" height="4" transform="translate(653 2546)"/></g><g transform="translate(-188 -2261)"><rect class="c" width="4" height="4" transform="translate(653 2546)"/></g><g transform="translate(-653 -2246)"><rect class="c" width="4" height="4" transform="translate(653 2546)"/></g><g transform="translate(-638 -2246)"><rect class="c" width="4" height="4" transform="translate(653 2546)"/></g><g transform="translate(-623 -2246)"><rect class="c" width="4" height="4" transform="translate(653 2546)"/></g><g transform="translate(-608 -2246)"><rect class="c" width="4" height="4" transform="translate(653 2546)"/></g><g transform="translate(-593 -2246)"><rect class="c" width="4" height="4" transform="translate(653 2546)"/></g><g transform="translate(-578 -2246)"><rect class="c" width="4" height="4" transform="translate(653 2546)"/></g><g transform="translate(-563 -2246)"><rect class="c" width="4" height="4" transform="translate(653 2546)"/></g><g transform="translate(-548 -2246)"><rect class="c" width="4" height="4" transform="translate(653 2546)"/></g><g transform="translate(-533 -2246)"><rect class="c" width="4" height="4" transform="translate(653 2546)"/></g><g transform="translate(-518 -2246)"><rect class="c" width="4" height="4" transform="translate(653 2546)"/></g><g transform="translate(-503 -2246)"><rect class="c" width="4" height="4" transform="translate(653 2546)"/></g><g transform="translate(-488 -2246)"><rect class="c" width="4" height="4" transform="translate(653 2546)"/></g><g transform="translate(-473 -2246)"><rect class="c" width="4" height="4" transform="translate(653 2546)"/></g><g transform="translate(-458 -2246)"><rect class="c" width="4" height="4" transform="translate(653 2546)"/></g><g transform="translate(-443 -2246)"><rect class="c" width="4" height="4" transform="translate(653 2546)"/></g><g transform="translate(-428 -2246)"><rect class="c" width="4" height="4" transform="translate(653 2546)"/></g><g transform="translate(-413 -2246)"><rect class="c" width="4" height="4" transform="translate(653 2546)"/></g><g transform="translate(-398 -2246)"><rect class="c" width="4" height="4" transform="translate(653 2546)"/></g><g transform="translate(-383 -2246)"><rect class="c" width="4" height="4" transform="translate(653 2546)"/></g><g transform="translate(-368 -2246)"><rect class="c" width="4" height="4" transform="translate(653 2546)"/></g><g transform="translate(-353 -2246)"><rect class="c" width="4" height="4" transform="translate(653 2546)"/></g><g transform="translate(-338 -2246)"><rect class="c" width="4" height="4" transform="translate(653 2546)"/></g><g transform="translate(-323 -2246)"><rect class="c" width="4" height="4" transform="translate(653 2546)"/></g><g transform="translate(-308 -2246)"><rect class="c" width="4" height="4" transform="translate(653 2546)"/></g><g transform="translate(-293 -2246)"><rect class="c" width="4" height="4" transform="translate(653 2546)"/></g><g transform="translate(-278 -2246)"><rect class="c" width="4" height="4" transform="translate(653 2546)"/></g><g transform="translate(-263 -2246)"><rect class="c" width="4" height="4" transform="translate(653 2546)"/></g><g transform="translate(-248 -2246)"><rect class="c" width="4" height="4" transform="translate(653 2546)"/></g><g transform="translate(-233 -2246)"><rect class="c" width="4" height="4" transform="translate(653 2546)"/></g><g transform="translate(-218 -2246)"><rect class="c" width="4" height="4" transform="translate(653 2546)"/></g><g transform="translate(-203 -2246)"><rect class="c" width="4" height="4" transform="translate(653 2546)"/></g><g transform="translate(-188 -2246)"><rect class="c" width="4" height="4" transform="translate(653 2546)"/></g><g transform="translate(-653 -2231)"><rect class="c" width="4" height="4" transform="translate(653 2546)"/></g><g transform="translate(-638 -2231)"><rect class="c" width="4" height="4" transform="translate(653 2546)"/></g><g transform="translate(-623 -2231)"><rect class="c" width="4" height="4" transform="translate(653 2546)"/></g><g transform="translate(-608 -2231)"><rect class="c" width="4" height="4" transform="translate(653 2546)"/></g><g transform="translate(-593 -2231)"><rect class="c" width="4" height="4" transform="translate(653 2546)"/></g><g transform="translate(-578 -2231)"><rect class="c" width="4" height="4" transform="translate(653 2546)"/></g><g transform="translate(-563 -2231)"><rect class="c" width="4" height="4" transform="translate(653 2546)"/></g><g transform="translate(-548 -2231)"><rect class="c" width="4" height="4" transform="translate(653 2546)"/></g><g transform="translate(-533 -2231)"><rect class="c" width="4" height="4" transform="translate(653 2546)"/></g><g transform="translate(-518 -2231)"><rect class="c" width="4" height="4" transform="translate(653 2546)"/></g><g transform="translate(-503 -2231)"><rect class="c" width="4" height="4" transform="translate(653 2546)"/></g><g transform="translate(-488 -2231)"><rect class="c" width="4" height="4" transform="translate(653 2546)"/></g><g transform="translate(-473 -2231)"><rect class="c" width="4" height="4" transform="translate(653 2546)"/></g><g transform="translate(-458 -2231)"><rect class="c" width="4" height="4" transform="translate(653 2546)"/></g><g transform="translate(-443 -2231)"><rect class="c" width="4" height="4" transform="translate(653 2546)"/></g><g transform="translate(-428 -2231)"><rect class="c" width="4" height="4" transform="translate(653 2546)"/></g><g transform="translate(-413 -2231)"><rect class="c" width="4" height="4" transform="translate(653 2546)"/></g><g transform="translate(-398 -2231)"><rect class="c" width="4" height="4" transform="translate(653 2546)"/></g><g transform="translate(-383 -2231)"><rect class="c" width="4" height="4" transform="translate(653 2546)"/></g><g transform="translate(-368 -2231)"><rect class="c" width="4" height="4" transform="translate(653 2546)"/></g><g transform="translate(-353 -2231)"><rect class="c" width="4" height="4" transform="translate(653 2546)"/></g><g transform="translate(-338 -2231)"><rect class="c" width="4" height="4" transform="translate(653 2546)"/></g><g transform="translate(-323 -2231)"><rect class="c" width="4" height="4" transform="translate(653 2546)"/></g><g transform="translate(-308 -2231)"><rect class="c" width="4" height="4" transform="translate(653 2546)"/></g><g transform="translate(-293 -2231)"><rect class="c" width="4" height="4" transform="translate(653 2546)"/></g><g transform="translate(-278 -2231)"><rect class="c" width="4" height="4" transform="translate(653 2546)"/></g><g transform="translate(-263 -2231)"><rect class="c" width="4" height="4" transform="translate(653 2546)"/></g><g transform="translate(-248 -2231)"><rect class="c" width="4" height="4" transform="translate(653 2546)"/></g><g transform="translate(-233 -2231)"><rect class="c" width="4" height="4" transform="translate(653 2546)"/></g><g transform="translate(-218 -2231)"><rect class="c" width="4" height="4" transform="translate(653 2546)"/></g><g transform="translate(-203 -2231)"><rect class="c" width="4" height="4" transform="translate(653 2546)"/></g><g transform="translate(-188 -2231)"><rect class="c" width="4" height="4" transform="translate(653 2546)"/></g><g transform="translate(-653 -2216)"><rect class="c" width="4" height="4" transform="translate(653 2546)"/></g><g transform="translate(-638 -2216)"><rect class="c" width="4" height="4" transform="translate(653 2546)"/></g><g transform="translate(-623 -2216)"><rect class="c" width="4" height="4" transform="translate(653 2546)"/></g><g transform="translate(-608 -2216)"><rect class="c" width="4" height="4" transform="translate(653 2546)"/></g><g transform="translate(-593 -2216)"><rect class="c" width="4" height="4" transform="translate(653 2546)"/></g><g transform="translate(-578 -2216)"><rect class="c" width="4" height="4" transform="translate(653 2546)"/></g><g transform="translate(-563 -2216)"><rect class="c" width="4" height="4" transform="translate(653 2546)"/></g><g transform="translate(-548 -2216)"><rect class="c" width="4" height="4" transform="translate(653 2546)"/></g><g transform="translate(-533 -2216)"><rect class="c" width="4" height="4" transform="translate(653 2546)"/></g><g transform="translate(-518 -2216)"><rect class="c" width="4" height="4" transform="translate(653 2546)"/></g><g transform="translate(-503 -2216)"><rect class="c" width="4" height="4" transform="translate(653 2546)"/></g><g transform="translate(-488 -2216)"><rect class="c" width="4" height="4" transform="translate(653 2546)"/></g><g transform="translate(-473 -2216)"><rect class="c" width="4" height="4" transform="translate(653 2546)"/></g><g transform="translate(-458 -2216)"><rect class="c" width="4" height="4" transform="translate(653 2546)"/></g><g transform="translate(-443 -2216)"><rect class="c" width="4" height="4" transform="translate(653 2546)"/></g><g transform="translate(-428 -2216)"><rect class="c" width="4" height="4" transform="translate(653 2546)"/></g><g transform="translate(-413 -2216)"><rect class="c" width="4" height="4" transform="translate(653 2546)"/></g><g transform="translate(-398 -2216)"><rect class="c" width="4" height="4" transform="translate(653 2546)"/></g><g transform="translate(-383 -2216)"><rect class="c" width="4" height="4" transform="translate(653 2546)"/></g><g transform="translate(-368 -2216)"><rect class="c" width="4" height="4" transform="translate(653 2546)"/></g><g transform="translate(-353 -2216)"><rect class="c" width="4" height="4" transform="translate(653 2546)"/></g><g transform="translate(-338 -2216)"><rect class="c" width="4" height="4" transform="translate(653 2546)"/></g><g transform="translate(-323 -2216)"><rect class="c" width="4" height="4" transform="translate(653 2546)"/></g><g transform="translate(-308 -2216)"><rect class="c" width="4" height="4" transform="translate(653 2546)"/></g><g transform="translate(-293 -2216)"><rect class="c" width="4" height="4" transform="translate(653 2546)"/></g><g transform="translate(-278 -2216)"><rect class="c" width="4" height="4" transform="translate(653 2546)"/></g><g transform="translate(-263 -2216)"><rect class="c" width="4" height="4" transform="translate(653 2546)"/></g><g transform="translate(-248 -2216)"><rect class="c" width="4" height="4" transform="translate(653 2546)"/></g><g transform="translate(-233 -2216)"><rect class="c" width="4" height="4" transform="translate(653 2546)"/></g><g transform="translate(-218 -2216)"><rect class="c" width="4" height="4" transform="translate(653 2546)"/></g><g transform="translate(-203 -2216)"><rect class="c" width="4" height="4" transform="translate(653 2546)"/></g><g transform="translate(-188 -2216)"><rect class="c" width="4" height="4" transform="translate(653 2546)"/></g><g transform="translate(-653 -2201)"><rect class="c" width="4" height="4" transform="translate(653 2546)"/></g><g transform="translate(-638 -2201)"><rect class="c" width="4" height="4" transform="translate(653 2546)"/></g><g transform="translate(-623 -2201)"><rect class="c" width="4" height="4" transform="translate(653 2546)"/></g><g transform="translate(-608 -2201)"><rect class="c" width="4" height="4" transform="translate(653 2546)"/></g><g transform="translate(-593 -2201)"><rect class="c" width="4" height="4" transform="translate(653 2546)"/></g><g transform="translate(-578 -2201)"><rect class="c" width="4" height="4" transform="translate(653 2546)"/></g><g transform="translate(-563 -2201)"><rect class="c" width="4" height="4" transform="translate(653 2546)"/></g><g transform="translate(-548 -2201)"><rect class="c" width="4" height="4" transform="translate(653 2546)"/></g><g transform="translate(-533 -2201)"><rect class="c" width="4" height="4" transform="translate(653 2546)"/></g><g transform="translate(-518 -2201)"><rect class="c" width="4" height="4" transform="translate(653 2546)"/></g><g transform="translate(-503 -2201)"><rect class="c" width="4" height="4" transform="translate(653 2546)"/></g><g transform="translate(-488 -2201)"><rect class="c" width="4" height="4" transform="translate(653 2546)"/></g><g transform="translate(-473 -2201)"><rect class="c" width="4" height="4" transform="translate(653 2546)"/></g><g transform="translate(-458 -2201)"><rect class="c" width="4" height="4" transform="translate(653 2546)"/></g><g transform="translate(-443 -2201)"><rect class="c" width="4" height="4" transform="translate(653 2546)"/></g><g transform="translate(-428 -2201)"><rect class="c" width="4" height="4" transform="translate(653 2546)"/></g><g transform="translate(-413 -2201)"><rect class="c" width="4" height="4" transform="translate(653 2546)"/></g><g transform="translate(-398 -2201)"><rect class="c" width="4" height="4" transform="translate(653 2546)"/></g><g transform="translate(-383 -2201)"><rect class="c" width="4" height="4" transform="translate(653 2546)"/></g><g transform="translate(-368 -2201)"><rect class="c" width="4" height="4" transform="translate(653 2546)"/></g><g transform="translate(-353 -2201)"><rect class="c" width="4" height="4" transform="translate(653 2546)"/></g><g transform="translate(-338 -2201)"><rect class="c" width="4" height="4" transform="translate(653 2546)"/></g><g transform="translate(-323 -2201)"><rect class="c" width="4" height="4" transform="translate(653 2546)"/></g><g transform="translate(-308 -2201)"><rect class="c" width="4" height="4" transform="translate(653 2546)"/></g><g transform="translate(-293 -2201)"><rect class="c" width="4" height="4" transform="translate(653 2546)"/></g><g transform="translate(-278 -2201)"><rect class="c" width="4" height="4" transform="translate(653 2546)"/></g><g transform="translate(-263 -2201)"><rect class="c" width="4" height="4" transform="translate(653 2546)"/></g><g transform="translate(-248 -2201)"><rect class="c" width="4" height="4" transform="translate(653 2546)"/></g><g transform="translate(-233 -2201)"><rect class="c" width="4" height="4" transform="translate(653 2546)"/></g><g transform="translate(-218 -2201)"><rect class="c" width="4" height="4" transform="translate(653 2546)"/></g><g transform="translate(-203 -2201)"><rect class="c" width="4" height="4" transform="translate(653 2546)"/></g><g transform="translate(-188 -2201)"><rect class="c" width="4" height="4" transform="translate(653 2546)"/></g></g></svg>