<svg xmlns="http://www.w3.org/2000/svg" xmlns:xlink="http://www.w3.org/1999/xlink" width="471" height="400" viewBox="0 0 471 400"><defs><style>.a{fill:none;}.b{clip-path:url(#a);}.c{fill:#c493a6;}</style><clipPath id="a"><rect class="a" width="471" height="400"/></clipPath></defs><g class="b"><g transform="translate(-653 -2546)"><rect class="c" width="4" height="4" transform="translate(653 2546)"/></g><g transform="translate(-636 -2546)"><rect class="c" width="4" height="4" transform="translate(653 2546)"/></g><g transform="translate(-619 -2546)"><rect class="c" width="4" height="4" transform="translate(653 2546)"/></g><g transform="translate(-602 -2546)"><rect class="c" width="4" height="4" transform="translate(653 2546)"/></g><g transform="translate(-585 -2546)"><rect class="c" width="4" height="4" transform="translate(653 2546)"/></g><g transform="translate(-568 -2546)"><rect class="c" width="4" height="4" transform="translate(653 2546)"/></g><g transform="translate(-551 -2546)"><rect class="c" width="4" height="4" transform="translate(653 2546)"/></g><g transform="translate(-534 -2546)"><rect class="c" width="4" height="4" transform="translate(653 2546)"/></g><g transform="translate(-517 -2546)"><rect class="c" width="4" height="4" transform="translate(653 2546)"/></g><g transform="translate(-500 -2546)"><rect class="c" width="4" height="4" transform="translate(653 2546)"/></g><g transform="translate(-483 -2546)"><rect class="c" width="4" height="4" transform="translate(653 2546)"/></g><g transform="translate(-466 -2546)"><rect class="c" width="4" height="4" transform="translate(653 2546)"/></g><g transform="translate(-449 -2546)"><rect class="c" width="4" height="4" transform="translate(653 2546)"/></g><g transform="translate(-432 -2546)"><rect class="c" width="4" height="4" transform="translate(653 2546)"/></g><g transform="translate(-415 -2546)"><rect class="c" width="4" height="4" transform="translate(653 2546)"/></g><g transform="translate(-398 -2546)"><rect class="c" width="4" height="4" transform="translate(653 2546)"/></g><g transform="translate(-381 -2546)"><rect class="c" width="4" height="4" transform="translate(653 2546)"/></g><g transform="translate(-364 -2546)"><rect class="c" width="4" height="4" transform="translate(653 2546)"/></g><g transform="translate(-347 -2546)"><rect class="c" width="4" height="4" transform="translate(653 2546)"/></g><g transform="translate(-330 -2546)"><rect class="c" width="4" height="4" transform="translate(653 2546)"/></g><g transform="translate(-313 -2546)"><rect class="c" width="4" height="4" transform="translate(653 2546)"/></g><g transform="translate(-296 -2546)"><rect class="c" width="4" height="4" transform="translate(653 2546)"/></g><g transform="translate(-279 -2546)"><rect class="c" width="4" height="4" transform="translate(653 2546)"/></g><g transform="translate(-262 -2546)"><rect class="c" width="4" height="4" transform="translate(653 2546)"/></g><g transform="translate(-245 -2546)"><rect class="c" width="4" height="4" transform="translate(653 2546)"/></g><g transform="translate(-228 -2546)"><rect class="c" width="4" height="4" transform="translate(653 2546)"/></g><g transform="translate(-211 -2546)"><rect class="c" width="4" height="4" transform="translate(653 2546)"/></g><g transform="translate(-194 -2546)"><rect class="c" width="4" height="4" transform="translate(653 2546)"/></g><g transform="translate(-653 -2529)"><rect class="c" width="4" height="4" transform="translate(653 2546)"/></g><g transform="translate(-636 -2529)"><rect class="c" width="4" height="4" transform="translate(653 2546)"/></g><g transform="translate(-619 -2529)"><rect class="c" width="4" height="4" transform="translate(653 2546)"/></g><g transform="translate(-602 -2529)"><rect class="c" width="4" height="4" transform="translate(653 2546)"/></g><g transform="translate(-585 -2529)"><rect class="c" width="4" height="4" transform="translate(653 2546)"/></g><g transform="translate(-568 -2529)"><rect class="c" width="4" height="4" transform="translate(653 2546)"/></g><g transform="translate(-551 -2529)"><rect class="c" width="4" height="4" transform="translate(653 2546)"/></g><g transform="translate(-534 -2529)"><rect class="c" width="4" height="4" transform="translate(653 2546)"/></g><g transform="translate(-517 -2529)"><rect class="c" width="4" height="4" transform="translate(653 2546)"/></g><g transform="translate(-500 -2529)"><rect class="c" width="4" height="4" transform="translate(653 2546)"/></g><g transform="translate(-483 -2529)"><rect class="c" width="4" height="4" transform="translate(653 2546)"/></g><g transform="translate(-466 -2529)"><rect class="c" width="4" height="4" transform="translate(653 2546)"/></g><g transform="translate(-449 -2529)"><rect class="c" width="4" height="4" transform="translate(653 2546)"/></g><g transform="translate(-432 -2529)"><rect class="c" width="4" height="4" transform="translate(653 2546)"/></g><g transform="translate(-415 -2529)"><rect class="c" width="4" height="4" transform="translate(653 2546)"/></g><g transform="translate(-398 -2529)"><rect class="c" width="4" height="4" transform="translate(653 2546)"/></g><g transform="translate(-381 -2529)"><rect class="c" width="4" height="4" transform="translate(653 2546)"/></g><g transform="translate(-364 -2529)"><rect class="c" width="4" height="4" transform="translate(653 2546)"/></g><g transform="translate(-347 -2529)"><rect class="c" width="4" height="4" transform="translate(653 2546)"/></g><g transform="translate(-330 -2529)"><rect class="c" width="4" height="4" transform="translate(653 2546)"/></g><g transform="translate(-313 -2529)"><rect class="c" width="4" height="4" transform="translate(653 2546)"/></g><g transform="translate(-296 -2529)"><rect class="c" width="4" height="4" transform="translate(653 2546)"/></g><g transform="translate(-279 -2529)"><rect class="c" width="4" height="4" transform="translate(653 2546)"/></g><g transform="translate(-262 -2529)"><rect class="c" width="4" height="4" transform="translate(653 2546)"/></g><g transform="translate(-245 -2529)"><rect class="c" width="4" height="4" transform="translate(653 2546)"/></g><g transform="translate(-228 -2529)"><rect class="c" width="4" height="4" transform="translate(653 2546)"/></g><g transform="translate(-211 -2529)"><rect class="c" width="4" height="4" transform="translate(653 2546)"/></g><g transform="translate(-194 -2529)"><rect class="c" width="4" height="4" transform="translate(653 2546)"/></g><g transform="translate(-653 -2512)"><rect class="c" width="4" height="4" transform="translate(653 2546)"/></g><g transform="translate(-636 -2512)"><rect class="c" width="4" height="4" transform="translate(653 2546)"/></g><g transform="translate(-619 -2512)"><rect class="c" width="4" height="4" transform="translate(653 2546)"/></g><g transform="translate(-602 -2512)"><rect class="c" width="4" height="4" transform="translate(653 2546)"/></g><g transform="translate(-585 -2512)"><rect class="c" width="4" height="4" transform="translate(653 2546)"/></g><g transform="translate(-568 -2512)"><rect class="c" width="4" height="4" transform="translate(653 2546)"/></g><g transform="translate(-551 -2512)"><rect class="c" width="4" height="4" transform="translate(653 2546)"/></g><g transform="translate(-534 -2512)"><rect class="c" width="4" height="4" transform="translate(653 2546)"/></g><g transform="translate(-517 -2512)"><rect class="c" width="4" height="4" transform="translate(653 2546)"/></g><g transform="translate(-500 -2512)"><rect class="c" width="4" height="4" transform="translate(653 2546)"/></g><g transform="translate(-483 -2512)"><rect class="c" width="4" height="4" transform="translate(653 2546)"/></g><g transform="translate(-466 -2512)"><rect class="c" width="4" height="4" transform="translate(653 2546)"/></g><g transform="translate(-449 -2512)"><rect class="c" width="4" height="4" transform="translate(653 2546)"/></g><g transform="translate(-432 -2512)"><rect class="c" width="4" height="4" transform="translate(653 2546)"/></g><g transform="translate(-415 -2512)"><rect class="c" width="4" height="4" transform="translate(653 2546)"/></g><g transform="translate(-398 -2512)"><rect class="c" width="4" height="4" transform="translate(653 2546)"/></g><g transform="translate(-381 -2512)"><rect class="c" width="4" height="4" transform="translate(653 2546)"/></g><g transform="translate(-364 -2512)"><rect class="c" width="4" height="4" transform="translate(653 2546)"/></g><g transform="translate(-347 -2512)"><rect class="c" width="4" height="4" transform="translate(653 2546)"/></g><g transform="translate(-330 -2512)"><rect class="c" width="4" height="4" transform="translate(653 2546)"/></g><g transform="translate(-313 -2512)"><rect class="c" width="4" height="4" transform="translate(653 2546)"/></g><g transform="translate(-296 -2512)"><rect class="c" width="4" height="4" transform="translate(653 2546)"/></g><g transform="translate(-279 -2512)"><rect class="c" width="4" height="4" transform="translate(653 2546)"/></g><g transform="translate(-262 -2512)"><rect class="c" width="4" height="4" transform="translate(653 2546)"/></g><g transform="translate(-245 -2512)"><rect class="c" width="4" height="4" transform="translate(653 2546)"/></g><g transform="translate(-228 -2512)"><rect class="c" width="4" height="4" transform="translate(653 2546)"/></g><g transform="translate(-211 -2512)"><rect class="c" width="4" height="4" transform="translate(653 2546)"/></g><g transform="translate(-194 -2512)"><rect class="c" width="4" height="4" transform="translate(653 2546)"/></g><g transform="translate(-653 -2495)"><rect class="c" width="4" height="4" transform="translate(653 2546)"/></g><g transform="translate(-636 -2495)"><rect class="c" width="4" height="4" transform="translate(653 2546)"/></g><g transform="translate(-619 -2495)"><rect class="c" width="4" height="4" transform="translate(653 2546)"/></g><g transform="translate(-602 -2495)"><rect class="c" width="4" height="4" transform="translate(653 2546)"/></g><g transform="translate(-585 -2495)"><rect class="c" width="4" height="4" transform="translate(653 2546)"/></g><g transform="translate(-568 -2495)"><rect class="c" width="4" height="4" transform="translate(653 2546)"/></g><g transform="translate(-551 -2495)"><rect class="c" width="4" height="4" transform="translate(653 2546)"/></g><g transform="translate(-534 -2495)"><rect class="c" width="4" height="4" transform="translate(653 2546)"/></g><g transform="translate(-517 -2495)"><rect class="c" width="4" height="4" transform="translate(653 2546)"/></g><g transform="translate(-500 -2495)"><rect class="c" width="4" height="4" transform="translate(653 2546)"/></g><g transform="translate(-483 -2495)"><rect class="c" width="4" height="4" transform="translate(653 2546)"/></g><g transform="translate(-466 -2495)"><rect class="c" width="4" height="4" transform="translate(653 2546)"/></g><g transform="translate(-449 -2495)"><rect class="c" width="4" height="4" transform="translate(653 2546)"/></g><g transform="translate(-432 -2495)"><rect class="c" width="4" height="4" transform="translate(653 2546)"/></g><g transform="translate(-415 -2495)"><rect class="c" width="4" height="4" transform="translate(653 2546)"/></g><g transform="translate(-398 -2495)"><rect class="c" width="4" height="4" transform="translate(653 2546)"/></g><g transform="translate(-381 -2495)"><rect class="c" width="4" height="4" transform="translate(653 2546)"/></g><g transform="translate(-364 -2495)"><rect class="c" width="4" height="4" transform="translate(653 2546)"/></g><g transform="translate(-347 -2495)"><rect class="c" width="4" height="4" transform="translate(653 2546)"/></g><g transform="translate(-330 -2495)"><rect class="c" width="4" height="4" transform="translate(653 2546)"/></g><g transform="translate(-313 -2495)"><rect class="c" width="4" height="4" transform="translate(653 2546)"/></g><g transform="translate(-296 -2495)"><rect class="c" width="4" height="4" transform="translate(653 2546)"/></g><g transform="translate(-279 -2495)"><rect class="c" width="4" height="4" transform="translate(653 2546)"/></g><g transform="translate(-262 -2495)"><rect class="c" width="4" height="4" transform="translate(653 2546)"/></g><g transform="translate(-245 -2495)"><rect class="c" width="4" height="4" transform="translate(653 2546)"/></g><g transform="translate(-228 -2495)"><rect class="c" width="4" height="4" transform="translate(653 2546)"/></g><g transform="translate(-211 -2495)"><rect class="c" width="4" height="4" transform="translate(653 2546)"/></g><g transform="translate(-194 -2495)"><rect class="c" width="4" height="4" transform="translate(653 2546)"/></g><g transform="translate(-653 -2478)"><rect class="c" width="4" height="4" transform="translate(653 2546)"/></g><g transform="translate(-636 -2478)"><rect class="c" width="4" height="4" transform="translate(653 2546)"/></g><g transform="translate(-619 -2478)"><rect class="c" width="4" height="4" transform="translate(653 2546)"/></g><g transform="translate(-602 -2478)"><rect class="c" width="4" height="4" transform="translate(653 2546)"/></g><g transform="translate(-585 -2478)"><rect class="c" width="4" height="4" transform="translate(653 2546)"/></g><g transform="translate(-568 -2478)"><rect class="c" width="4" height="4" transform="translate(653 2546)"/></g><g transform="translate(-551 -2478)"><rect class="c" width="4" height="4" transform="translate(653 2546)"/></g><g transform="translate(-534 -2478)"><rect class="c" width="4" height="4" transform="translate(653 2546)"/></g><g transform="translate(-517 -2478)"><rect class="c" width="4" height="4" transform="translate(653 2546)"/></g><g transform="translate(-500 -2478)"><rect class="c" width="4" height="4" transform="translate(653 2546)"/></g><g transform="translate(-483 -2478)"><rect class="c" width="4" height="4" transform="translate(653 2546)"/></g><g transform="translate(-466 -2478)"><rect class="c" width="4" height="4" transform="translate(653 2546)"/></g><g transform="translate(-449 -2478)"><rect class="c" width="4" height="4" transform="translate(653 2546)"/></g><g transform="translate(-432 -2478)"><rect class="c" width="4" height="4" transform="translate(653 2546)"/></g><g transform="translate(-415 -2478)"><rect class="c" width="4" height="4" transform="translate(653 2546)"/></g><g transform="translate(-398 -2478)"><rect class="c" width="4" height="4" transform="translate(653 2546)"/></g><g transform="translate(-381 -2478)"><rect class="c" width="4" height="4" transform="translate(653 2546)"/></g><g transform="translate(-364 -2478)"><rect class="c" width="4" height="4" transform="translate(653 2546)"/></g><g transform="translate(-347 -2478)"><rect class="c" width="4" height="4" transform="translate(653 2546)"/></g><g transform="translate(-330 -2478)"><rect class="c" width="4" height="4" transform="translate(653 2546)"/></g><g transform="translate(-313 -2478)"><rect class="c" width="4" height="4" transform="translate(653 2546)"/></g><g transform="translate(-296 -2478)"><rect class="c" width="4" height="4" transform="translate(653 2546)"/></g><g transform="translate(-279 -2478)"><rect class="c" width="4" height="4" transform="translate(653 2546)"/></g><g transform="translate(-262 -2478)"><rect class="c" width="4" height="4" transform="translate(653 2546)"/></g><g transform="translate(-245 -2478)"><rect class="c" width="4" height="4" transform="translate(653 2546)"/></g><g transform="translate(-228 -2478)"><rect class="c" width="4" height="4" transform="translate(653 2546)"/></g><g transform="translate(-211 -2478)"><rect class="c" width="4" height="4" transform="translate(653 2546)"/></g><g transform="translate(-194 -2478)"><rect class="c" width="4" height="4" transform="translate(653 2546)"/></g><g transform="translate(-653 -2461)"><rect class="c" width="4" height="4" transform="translate(653 2546)"/></g><g transform="translate(-636 -2461)"><rect class="c" width="4" height="4" transform="translate(653 2546)"/></g><g transform="translate(-619 -2461)"><rect class="c" width="4" height="4" transform="translate(653 2546)"/></g><g transform="translate(-602 -2461)"><rect class="c" width="4" height="4" transform="translate(653 2546)"/></g><g transform="translate(-585 -2461)"><rect class="c" width="4" height="4" transform="translate(653 2546)"/></g><g transform="translate(-568 -2461)"><rect class="c" width="4" height="4" transform="translate(653 2546)"/></g><g transform="translate(-551 -2461)"><rect class="c" width="4" height="4" transform="translate(653 2546)"/></g><g transform="translate(-534 -2461)"><rect class="c" width="4" height="4" transform="translate(653 2546)"/></g><g transform="translate(-517 -2461)"><rect class="c" width="4" height="4" transform="translate(653 2546)"/></g><g transform="translate(-500 -2461)"><rect class="c" width="4" height="4" transform="translate(653 2546)"/></g><g transform="translate(-483 -2461)"><rect class="c" width="4" height="4" transform="translate(653 2546)"/></g><g transform="translate(-466 -2461)"><rect class="c" width="4" height="4" transform="translate(653 2546)"/></g><g transform="translate(-449 -2461)"><rect class="c" width="4" height="4" transform="translate(653 2546)"/></g><g transform="translate(-432 -2461)"><rect class="c" width="4" height="4" transform="translate(653 2546)"/></g><g transform="translate(-415 -2461)"><rect class="c" width="4" height="4" transform="translate(653 2546)"/></g><g transform="translate(-398 -2461)"><rect class="c" width="4" height="4" transform="translate(653 2546)"/></g><g transform="translate(-381 -2461)"><rect class="c" width="4" height="4" transform="translate(653 2546)"/></g><g transform="translate(-364 -2461)"><rect class="c" width="4" height="4" transform="translate(653 2546)"/></g><g transform="translate(-347 -2461)"><rect class="c" width="4" height="4" transform="translate(653 2546)"/></g><g transform="translate(-330 -2461)"><rect class="c" width="4" height="4" transform="translate(653 2546)"/></g><g transform="translate(-313 -2461)"><rect class="c" width="4" height="4" transform="translate(653 2546)"/></g><g transform="translate(-296 -2461)"><rect class="c" width="4" height="4" transform="translate(653 2546)"/></g><g transform="translate(-279 -2461)"><rect class="c" width="4" height="4" transform="translate(653 2546)"/></g><g transform="translate(-262 -2461)"><rect class="c" width="4" height="4" transform="translate(653 2546)"/></g><g transform="translate(-245 -2461)"><rect class="c" width="4" height="4" transform="translate(653 2546)"/></g><g transform="translate(-228 -2461)"><rect class="c" width="4" height="4" transform="translate(653 2546)"/></g><g transform="translate(-211 -2461)"><rect class="c" width="4" height="4" transform="translate(653 2546)"/></g><g transform="translate(-194 -2461)"><rect class="c" width="4" height="4" transform="translate(653 2546)"/></g><g transform="translate(-653 -2444)"><rect class="c" width="4" height="4" transform="translate(653 2546)"/></g><g transform="translate(-636 -2444)"><rect class="c" width="4" height="4" transform="translate(653 2546)"/></g><g transform="translate(-619 -2444)"><rect class="c" width="4" height="4" transform="translate(653 2546)"/></g><g transform="translate(-602 -2444)"><rect class="c" width="4" height="4" transform="translate(653 2546)"/></g><g transform="translate(-585 -2444)"><rect class="c" width="4" height="4" transform="translate(653 2546)"/></g><g transform="translate(-568 -2444)"><rect class="c" width="4" height="4" transform="translate(653 2546)"/></g><g transform="translate(-551 -2444)"><rect class="c" width="4" height="4" transform="translate(653 2546)"/></g><g transform="translate(-534 -2444)"><rect class="c" width="4" height="4" transform="translate(653 2546)"/></g><g transform="translate(-517 -2444)"><rect class="c" width="4" height="4" transform="translate(653 2546)"/></g><g transform="translate(-500 -2444)"><rect class="c" width="4" height="4" transform="translate(653 2546)"/></g><g transform="translate(-483 -2444)"><rect class="c" width="4" height="4" transform="translate(653 2546)"/></g><g transform="translate(-466 -2444)"><rect class="c" width="4" height="4" transform="translate(653 2546)"/></g><g transform="translate(-449 -2444)"><rect class="c" width="4" height="4" transform="translate(653 2546)"/></g><g transform="translate(-432 -2444)"><rect class="c" width="4" height="4" transform="translate(653 2546)"/></g><g transform="translate(-415 -2444)"><rect class="c" width="4" height="4" transform="translate(653 2546)"/></g><g transform="translate(-398 -2444)"><rect class="c" width="4" height="4" transform="translate(653 2546)"/></g><g transform="translate(-381 -2444)"><rect class="c" width="4" height="4" transform="translate(653 2546)"/></g><g transform="translate(-364 -2444)"><rect class="c" width="4" height="4" transform="translate(653 2546)"/></g><g transform="translate(-347 -2444)"><rect class="c" width="4" height="4" transform="translate(653 2546)"/></g><g transform="translate(-330 -2444)"><rect class="c" width="4" height="4" transform="translate(653 2546)"/></g><g transform="translate(-313 -2444)"><rect class="c" width="4" height="4" transform="translate(653 2546)"/></g><g transform="translate(-296 -2444)"><rect class="c" width="4" height="4" transform="translate(653 2546)"/></g><g transform="translate(-279 -2444)"><rect class="c" width="4" height="4" transform="translate(653 2546)"/></g><g transform="translate(-262 -2444)"><rect class="c" width="4" height="4" transform="translate(653 2546)"/></g><g transform="translate(-245 -2444)"><rect class="c" width="4" height="4" transform="translate(653 2546)"/></g><g transform="translate(-228 -2444)"><rect class="c" width="4" height="4" transform="translate(653 2546)"/></g><g transform="translate(-211 -2444)"><rect class="c" width="4" height="4" transform="translate(653 2546)"/></g><g transform="translate(-194 -2444)"><rect class="c" width="4" height="4" transform="translate(653 2546)"/></g><g transform="translate(-653 -2427)"><rect class="c" width="4" height="4" transform="translate(653 2546)"/></g><g transform="translate(-636 -2427)"><rect class="c" width="4" height="4" transform="translate(653 2546)"/></g><g transform="translate(-619 -2427)"><rect class="c" width="4" height="4" transform="translate(653 2546)"/></g><g transform="translate(-602 -2427)"><rect class="c" width="4" height="4" transform="translate(653 2546)"/></g><g transform="translate(-585 -2427)"><rect class="c" width="4" height="4" transform="translate(653 2546)"/></g><g transform="translate(-568 -2427)"><rect class="c" width="4" height="4" transform="translate(653 2546)"/></g><g transform="translate(-551 -2427)"><rect class="c" width="4" height="4" transform="translate(653 2546)"/></g><g transform="translate(-534 -2427)"><rect class="c" width="4" height="4" transform="translate(653 2546)"/></g><g transform="translate(-517 -2427)"><rect class="c" width="4" height="4" transform="translate(653 2546)"/></g><g transform="translate(-500 -2427)"><rect class="c" width="4" height="4" transform="translate(653 2546)"/></g><g transform="translate(-483 -2427)"><rect class="c" width="4" height="4" transform="translate(653 2546)"/></g><g transform="translate(-466 -2427)"><rect class="c" width="4" height="4" transform="translate(653 2546)"/></g><g transform="translate(-449 -2427)"><rect class="c" width="4" height="4" transform="translate(653 2546)"/></g><g transform="translate(-432 -2427)"><rect class="c" width="4" height="4" transform="translate(653 2546)"/></g><g transform="translate(-415 -2427)"><rect class="c" width="4" height="4" transform="translate(653 2546)"/></g><g transform="translate(-398 -2427)"><rect class="c" width="4" height="4" transform="translate(653 2546)"/></g><g transform="translate(-381 -2427)"><rect class="c" width="4" height="4" transform="translate(653 2546)"/></g><g transform="translate(-364 -2427)"><rect class="c" width="4" height="4" transform="translate(653 2546)"/></g><g transform="translate(-347 -2427)"><rect class="c" width="4" height="4" transform="translate(653 2546)"/></g><g transform="translate(-330 -2427)"><rect class="c" width="4" height="4" transform="translate(653 2546)"/></g><g transform="translate(-313 -2427)"><rect class="c" width="4" height="4" transform="translate(653 2546)"/></g><g transform="translate(-296 -2427)"><rect class="c" width="4" height="4" transform="translate(653 2546)"/></g><g transform="translate(-279 -2427)"><rect class="c" width="4" height="4" transform="translate(653 2546)"/></g><g transform="translate(-262 -2427)"><rect class="c" width="4" height="4" transform="translate(653 2546)"/></g><g transform="translate(-245 -2427)"><rect class="c" width="4" height="4" transform="translate(653 2546)"/></g><g transform="translate(-228 -2427)"><rect class="c" width="4" height="4" transform="translate(653 2546)"/></g><g transform="translate(-211 -2427)"><rect class="c" width="4" height="4" transform="translate(653 2546)"/></g><g transform="translate(-194 -2427)"><rect class="c" width="4" height="4" transform="translate(653 2546)"/></g><g transform="translate(-653 -2410)"><rect class="c" width="4" height="4" transform="translate(653 2546)"/></g><g transform="translate(-636 -2410)"><rect class="c" width="4" height="4" transform="translate(653 2546)"/></g><g transform="translate(-619 -2410)"><rect class="c" width="4" height="4" transform="translate(653 2546)"/></g><g transform="translate(-602 -2410)"><rect class="c" width="4" height="4" transform="translate(653 2546)"/></g><g transform="translate(-585 -2410)"><rect class="c" width="4" height="4" transform="translate(653 2546)"/></g><g transform="translate(-568 -2410)"><rect class="c" width="4" height="4" transform="translate(653 2546)"/></g><g transform="translate(-551 -2410)"><rect class="c" width="4" height="4" transform="translate(653 2546)"/></g><g transform="translate(-534 -2410)"><rect class="c" width="4" height="4" transform="translate(653 2546)"/></g><g transform="translate(-517 -2410)"><rect class="c" width="4" height="4" transform="translate(653 2546)"/></g><g transform="translate(-500 -2410)"><rect class="c" width="4" height="4" transform="translate(653 2546)"/></g><g transform="translate(-483 -2410)"><rect class="c" width="4" height="4" transform="translate(653 2546)"/></g><g transform="translate(-466 -2410)"><rect class="c" width="4" height="4" transform="translate(653 2546)"/></g><g transform="translate(-449 -2410)"><rect class="c" width="4" height="4" transform="translate(653 2546)"/></g><g transform="translate(-432 -2410)"><rect class="c" width="4" height="4" transform="translate(653 2546)"/></g><g transform="translate(-415 -2410)"><rect class="c" width="4" height="4" transform="translate(653 2546)"/></g><g transform="translate(-398 -2410)"><rect class="c" width="4" height="4" transform="translate(653 2546)"/></g><g transform="translate(-381 -2410)"><rect class="c" width="4" height="4" transform="translate(653 2546)"/></g><g transform="translate(-364 -2410)"><rect class="c" width="4" height="4" transform="translate(653 2546)"/></g><g transform="translate(-347 -2410)"><rect class="c" width="4" height="4" transform="translate(653 2546)"/></g><g transform="translate(-330 -2410)"><rect class="c" width="4" height="4" transform="translate(653 2546)"/></g><g transform="translate(-313 -2410)"><rect class="c" width="4" height="4" transform="translate(653 2546)"/></g><g transform="translate(-296 -2410)"><rect class="c" width="4" height="4" transform="translate(653 2546)"/></g><g transform="translate(-279 -2410)"><rect class="c" width="4" height="4" transform="translate(653 2546)"/></g><g transform="translate(-262 -2410)"><rect class="c" width="4" height="4" transform="translate(653 2546)"/></g><g transform="translate(-245 -2410)"><rect class="c" width="4" height="4" transform="translate(653 2546)"/></g><g transform="translate(-228 -2410)"><rect class="c" width="4" height="4" transform="translate(653 2546)"/></g><g transform="translate(-211 -2410)"><rect class="c" width="4" height="4" transform="translate(653 2546)"/></g><g transform="translate(-194 -2410)"><rect class="c" width="4" height="4" transform="translate(653 2546)"/></g><g transform="translate(-653 -2393)"><rect class="c" width="4" height="4" transform="translate(653 2546)"/></g><g transform="translate(-636 -2393)"><rect class="c" width="4" height="4" transform="translate(653 2546)"/></g><g transform="translate(-619 -2393)"><rect class="c" width="4" height="4" transform="translate(653 2546)"/></g><g transform="translate(-602 -2393)"><rect class="c" width="4" height="4" transform="translate(653 2546)"/></g><g transform="translate(-585 -2393)"><rect class="c" width="4" height="4" transform="translate(653 2546)"/></g><g transform="translate(-568 -2393)"><rect class="c" width="4" height="4" transform="translate(653 2546)"/></g><g transform="translate(-551 -2393)"><rect class="c" width="4" height="4" transform="translate(653 2546)"/></g><g transform="translate(-534 -2393)"><rect class="c" width="4" height="4" transform="translate(653 2546)"/></g><g transform="translate(-517 -2393)"><rect class="c" width="4" height="4" transform="translate(653 2546)"/></g><g transform="translate(-500 -2393)"><rect class="c" width="4" height="4" transform="translate(653 2546)"/></g><g transform="translate(-483 -2393)"><rect class="c" width="4" height="4" transform="translate(653 2546)"/></g><g transform="translate(-466 -2393)"><rect class="c" width="4" height="4" transform="translate(653 2546)"/></g><g transform="translate(-449 -2393)"><rect class="c" width="4" height="4" transform="translate(653 2546)"/></g><g transform="translate(-432 -2393)"><rect class="c" width="4" height="4" transform="translate(653 2546)"/></g><g transform="translate(-415 -2393)"><rect class="c" width="4" height="4" transform="translate(653 2546)"/></g><g transform="translate(-398 -2393)"><rect class="c" width="4" height="4" transform="translate(653 2546)"/></g><g transform="translate(-381 -2393)"><rect class="c" width="4" height="4" transform="translate(653 2546)"/></g><g transform="translate(-364 -2393)"><rect class="c" width="4" height="4" transform="translate(653 2546)"/></g><g transform="translate(-347 -2393)"><rect class="c" width="4" height="4" transform="translate(653 2546)"/></g><g transform="translate(-330 -2393)"><rect class="c" width="4" height="4" transform="translate(653 2546)"/></g><g transform="translate(-313 -2393)"><rect class="c" width="4" height="4" transform="translate(653 2546)"/></g><g transform="translate(-296 -2393)"><rect class="c" width="4" height="4" transform="translate(653 2546)"/></g><g transform="translate(-279 -2393)"><rect class="c" width="4" height="4" transform="translate(653 2546)"/></g><g transform="translate(-262 -2393)"><rect class="c" width="4" height="4" transform="translate(653 2546)"/></g><g transform="translate(-245 -2393)"><rect class="c" width="4" height="4" transform="translate(653 2546)"/></g><g transform="translate(-228 -2393)"><rect class="c" width="4" height="4" transform="translate(653 2546)"/></g><g transform="translate(-211 -2393)"><rect class="c" width="4" height="4" transform="translate(653 2546)"/></g><g transform="translate(-194 -2393)"><rect class="c" width="4" height="4" transform="translate(653 2546)"/></g><g transform="translate(-653 -2376)"><rect class="c" width="4" height="4" transform="translate(653 2546)"/></g><g transform="translate(-636 -2376)"><rect class="c" width="4" height="4" transform="translate(653 2546)"/></g><g transform="translate(-619 -2376)"><rect class="c" width="4" height="4" transform="translate(653 2546)"/></g><g transform="translate(-602 -2376)"><rect class="c" width="4" height="4" transform="translate(653 2546)"/></g><g transform="translate(-585 -2376)"><rect class="c" width="4" height="4" transform="translate(653 2546)"/></g><g transform="translate(-568 -2376)"><rect class="c" width="4" height="4" transform="translate(653 2546)"/></g><g transform="translate(-551 -2376)"><rect class="c" width="4" height="4" transform="translate(653 2546)"/></g><g transform="translate(-534 -2376)"><rect class="c" width="4" height="4" transform="translate(653 2546)"/></g><g transform="translate(-517 -2376)"><rect class="c" width="4" height="4" transform="translate(653 2546)"/></g><g transform="translate(-500 -2376)"><rect class="c" width="4" height="4" transform="translate(653 2546)"/></g><g transform="translate(-483 -2376)"><rect class="c" width="4" height="4" transform="translate(653 2546)"/></g><g transform="translate(-466 -2376)"><rect class="c" width="4" height="4" transform="translate(653 2546)"/></g><g transform="translate(-449 -2376)"><rect class="c" width="4" height="4" transform="translate(653 2546)"/></g><g transform="translate(-432 -2376)"><rect class="c" width="4" height="4" transform="translate(653 2546)"/></g><g transform="translate(-415 -2376)"><rect class="c" width="4" height="4" transform="translate(653 2546)"/></g><g transform="translate(-398 -2376)"><rect class="c" width="4" height="4" transform="translate(653 2546)"/></g><g transform="translate(-381 -2376)"><rect class="c" width="4" height="4" transform="translate(653 2546)"/></g><g transform="translate(-364 -2376)"><rect class="c" width="4" height="4" transform="translate(653 2546)"/></g><g transform="translate(-347 -2376)"><rect class="c" width="4" height="4" transform="translate(653 2546)"/></g><g transform="translate(-330 -2376)"><rect class="c" width="4" height="4" transform="translate(653 2546)"/></g><g transform="translate(-313 -2376)"><rect class="c" width="4" height="4" transform="translate(653 2546)"/></g><g transform="translate(-296 -2376)"><rect class="c" width="4" height="4" transform="translate(653 2546)"/></g><g transform="translate(-279 -2376)"><rect class="c" width="4" height="4" transform="translate(653 2546)"/></g><g transform="translate(-262 -2376)"><rect class="c" width="4" height="4" transform="translate(653 2546)"/></g><g transform="translate(-245 -2376)"><rect class="c" width="4" height="4" transform="translate(653 2546)"/></g><g transform="translate(-228 -2376)"><rect class="c" width="4" height="4" transform="translate(653 2546)"/></g><g transform="translate(-211 -2376)"><rect class="c" width="4" height="4" transform="translate(653 2546)"/></g><g transform="translate(-194 -2376)"><rect class="c" width="4" height="4" transform="translate(653 2546)"/></g><g transform="translate(-653 -2359)"><rect class="c" width="4" height="4" transform="translate(653 2546)"/></g><g transform="translate(-636 -2359)"><rect class="c" width="4" height="4" transform="translate(653 2546)"/></g><g transform="translate(-619 -2359)"><rect class="c" width="4" height="4" transform="translate(653 2546)"/></g><g transform="translate(-602 -2359)"><rect class="c" width="4" height="4" transform="translate(653 2546)"/></g><g transform="translate(-585 -2359)"><rect class="c" width="4" height="4" transform="translate(653 2546)"/></g><g transform="translate(-568 -2359)"><rect class="c" width="4" height="4" transform="translate(653 2546)"/></g><g transform="translate(-551 -2359)"><rect class="c" width="4" height="4" transform="translate(653 2546)"/></g><g transform="translate(-534 -2359)"><rect class="c" width="4" height="4" transform="translate(653 2546)"/></g><g transform="translate(-517 -2359)"><rect class="c" width="4" height="4" transform="translate(653 2546)"/></g><g transform="translate(-500 -2359)"><rect class="c" width="4" height="4" transform="translate(653 2546)"/></g><g transform="translate(-483 -2359)"><rect class="c" width="4" height="4" transform="translate(653 2546)"/></g><g transform="translate(-466 -2359)"><rect class="c" width="4" height="4" transform="translate(653 2546)"/></g><g transform="translate(-449 -2359)"><rect class="c" width="4" height="4" transform="translate(653 2546)"/></g><g transform="translate(-432 -2359)"><rect class="c" width="4" height="4" transform="translate(653 2546)"/></g><g transform="translate(-415 -2359)"><rect class="c" width="4" height="4" transform="translate(653 2546)"/></g><g transform="translate(-398 -2359)"><rect class="c" width="4" height="4" transform="translate(653 2546)"/></g><g transform="translate(-381 -2359)"><rect class="c" width="4" height="4" transform="translate(653 2546)"/></g><g transform="translate(-364 -2359)"><rect class="c" width="4" height="4" transform="translate(653 2546)"/></g><g transform="translate(-347 -2359)"><rect class="c" width="4" height="4" transform="translate(653 2546)"/></g><g transform="translate(-330 -2359)"><rect class="c" width="4" height="4" transform="translate(653 2546)"/></g><g transform="translate(-313 -2359)"><rect class="c" width="4" height="4" transform="translate(653 2546)"/></g><g transform="translate(-296 -2359)"><rect class="c" width="4" height="4" transform="translate(653 2546)"/></g><g transform="translate(-279 -2359)"><rect class="c" width="4" height="4" transform="translate(653 2546)"/></g><g transform="translate(-262 -2359)"><rect class="c" width="4" height="4" transform="translate(653 2546)"/></g><g transform="translate(-245 -2359)"><rect class="c" width="4" height="4" transform="translate(653 2546)"/></g><g transform="translate(-228 -2359)"><rect class="c" width="4" height="4" transform="translate(653 2546)"/></g><g transform="translate(-211 -2359)"><rect class="c" width="4" height="4" transform="translate(653 2546)"/></g><g transform="translate(-194 -2359)"><rect class="c" width="4" height="4" transform="translate(653 2546)"/></g><g transform="translate(-653 -2342)"><rect class="c" width="4" height="4" transform="translate(653 2546)"/></g><g transform="translate(-636 -2342)"><rect class="c" width="4" height="4" transform="translate(653 2546)"/></g><g transform="translate(-619 -2342)"><rect class="c" width="4" height="4" transform="translate(653 2546)"/></g><g transform="translate(-602 -2342)"><rect class="c" width="4" height="4" transform="translate(653 2546)"/></g><g transform="translate(-585 -2342)"><rect class="c" width="4" height="4" transform="translate(653 2546)"/></g><g transform="translate(-568 -2342)"><rect class="c" width="4" height="4" transform="translate(653 2546)"/></g><g transform="translate(-551 -2342)"><rect class="c" width="4" height="4" transform="translate(653 2546)"/></g><g transform="translate(-534 -2342)"><rect class="c" width="4" height="4" transform="translate(653 2546)"/></g><g transform="translate(-517 -2342)"><rect class="c" width="4" height="4" transform="translate(653 2546)"/></g><g transform="translate(-500 -2342)"><rect class="c" width="4" height="4" transform="translate(653 2546)"/></g><g transform="translate(-483 -2342)"><rect class="c" width="4" height="4" transform="translate(653 2546)"/></g><g transform="translate(-466 -2342)"><rect class="c" width="4" height="4" transform="translate(653 2546)"/></g><g transform="translate(-449 -2342)"><rect class="c" width="4" height="4" transform="translate(653 2546)"/></g><g transform="translate(-432 -2342)"><rect class="c" width="4" height="4" transform="translate(653 2546)"/></g><g transform="translate(-415 -2342)"><rect class="c" width="4" height="4" transform="translate(653 2546)"/></g><g transform="translate(-398 -2342)"><rect class="c" width="4" height="4" transform="translate(653 2546)"/></g><g transform="translate(-381 -2342)"><rect class="c" width="4" height="4" transform="translate(653 2546)"/></g><g transform="translate(-364 -2342)"><rect class="c" width="4" height="4" transform="translate(653 2546)"/></g><g transform="translate(-347 -2342)"><rect class="c" width="4" height="4" transform="translate(653 2546)"/></g><g transform="translate(-330 -2342)"><rect class="c" width="4" height="4" transform="translate(653 2546)"/></g><g transform="translate(-313 -2342)"><rect class="c" width="4" height="4" transform="translate(653 2546)"/></g><g transform="translate(-296 -2342)"><rect class="c" width="4" height="4" transform="translate(653 2546)"/></g><g transform="translate(-279 -2342)"><rect class="c" width="4" height="4" transform="translate(653 2546)"/></g><g transform="translate(-262 -2342)"><rect class="c" width="4" height="4" transform="translate(653 2546)"/></g><g transform="translate(-245 -2342)"><rect class="c" width="4" height="4" transform="translate(653 2546)"/></g><g transform="translate(-228 -2342)"><rect class="c" width="4" height="4" transform="translate(653 2546)"/></g><g transform="translate(-211 -2342)"><rect class="c" width="4" height="4" transform="translate(653 2546)"/></g><g transform="translate(-194 -2342)"><rect class="c" width="4" height="4" transform="translate(653 2546)"/></g><g transform="translate(-653 -2325)"><rect class="c" width="4" height="4" transform="translate(653 2546)"/></g><g transform="translate(-636 -2325)"><rect class="c" width="4" height="4" transform="translate(653 2546)"/></g><g transform="translate(-619 -2325)"><rect class="c" width="4" height="4" transform="translate(653 2546)"/></g><g transform="translate(-602 -2325)"><rect class="c" width="4" height="4" transform="translate(653 2546)"/></g><g transform="translate(-585 -2325)"><rect class="c" width="4" height="4" transform="translate(653 2546)"/></g><g transform="translate(-568 -2325)"><rect class="c" width="4" height="4" transform="translate(653 2546)"/></g><g transform="translate(-551 -2325)"><rect class="c" width="4" height="4" transform="translate(653 2546)"/></g><g transform="translate(-534 -2325)"><rect class="c" width="4" height="4" transform="translate(653 2546)"/></g><g transform="translate(-517 -2325)"><rect class="c" width="4" height="4" transform="translate(653 2546)"/></g><g transform="translate(-500 -2325)"><rect class="c" width="4" height="4" transform="translate(653 2546)"/></g><g transform="translate(-483 -2325)"><rect class="c" width="4" height="4" transform="translate(653 2546)"/></g><g transform="translate(-466 -2325)"><rect class="c" width="4" height="4" transform="translate(653 2546)"/></g><g transform="translate(-449 -2325)"><rect class="c" width="4" height="4" transform="translate(653 2546)"/></g><g transform="translate(-432 -2325)"><rect class="c" width="4" height="4" transform="translate(653 2546)"/></g><g transform="translate(-415 -2325)"><rect class="c" width="4" height="4" transform="translate(653 2546)"/></g><g transform="translate(-398 -2325)"><rect class="c" width="4" height="4" transform="translate(653 2546)"/></g><g transform="translate(-381 -2325)"><rect class="c" width="4" height="4" transform="translate(653 2546)"/></g><g transform="translate(-364 -2325)"><rect class="c" width="4" height="4" transform="translate(653 2546)"/></g><g transform="translate(-347 -2325)"><rect class="c" width="4" height="4" transform="translate(653 2546)"/></g><g transform="translate(-330 -2325)"><rect class="c" width="4" height="4" transform="translate(653 2546)"/></g><g transform="translate(-313 -2325)"><rect class="c" width="4" height="4" transform="translate(653 2546)"/></g><g transform="translate(-296 -2325)"><rect class="c" width="4" height="4" transform="translate(653 2546)"/></g><g transform="translate(-279 -2325)"><rect class="c" width="4" height="4" transform="translate(653 2546)"/></g><g transform="translate(-262 -2325)"><rect class="c" width="4" height="4" transform="translate(653 2546)"/></g><g transform="translate(-245 -2325)"><rect class="c" width="4" height="4" transform="translate(653 2546)"/></g><g transform="translate(-228 -2325)"><rect class="c" width="4" height="4" transform="translate(653 2546)"/></g><g transform="translate(-211 -2325)"><rect class="c" width="4" height="4" transform="translate(653 2546)"/></g><g transform="translate(-194 -2325)"><rect class="c" width="4" height="4" transform="translate(653 2546)"/></g><g transform="translate(-653 -2308)"><rect class="c" width="4" height="4" transform="translate(653 2546)"/></g><g transform="translate(-636 -2308)"><rect class="c" width="4" height="4" transform="translate(653 2546)"/></g><g transform="translate(-619 -2308)"><rect class="c" width="4" height="4" transform="translate(653 2546)"/></g><g transform="translate(-602 -2308)"><rect class="c" width="4" height="4" transform="translate(653 2546)"/></g><g transform="translate(-585 -2308)"><rect class="c" width="4" height="4" transform="translate(653 2546)"/></g><g transform="translate(-568 -2308)"><rect class="c" width="4" height="4" transform="translate(653 2546)"/></g><g transform="translate(-551 -2308)"><rect class="c" width="4" height="4" transform="translate(653 2546)"/></g><g transform="translate(-534 -2308)"><rect class="c" width="4" height="4" transform="translate(653 2546)"/></g><g transform="translate(-517 -2308)"><rect class="c" width="4" height="4" transform="translate(653 2546)"/></g><g transform="translate(-500 -2308)"><rect class="c" width="4" height="4" transform="translate(653 2546)"/></g><g transform="translate(-483 -2308)"><rect class="c" width="4" height="4" transform="translate(653 2546)"/></g><g transform="translate(-466 -2308)"><rect class="c" width="4" height="4" transform="translate(653 2546)"/></g><g transform="translate(-449 -2308)"><rect class="c" width="4" height="4" transform="translate(653 2546)"/></g><g transform="translate(-432 -2308)"><rect class="c" width="4" height="4" transform="translate(653 2546)"/></g><g transform="translate(-415 -2308)"><rect class="c" width="4" height="4" transform="translate(653 2546)"/></g><g transform="translate(-398 -2308)"><rect class="c" width="4" height="4" transform="translate(653 2546)"/></g><g transform="translate(-381 -2308)"><rect class="c" width="4" height="4" transform="translate(653 2546)"/></g><g transform="translate(-364 -2308)"><rect class="c" width="4" height="4" transform="translate(653 2546)"/></g><g transform="translate(-347 -2308)"><rect class="c" width="4" height="4" transform="translate(653 2546)"/></g><g transform="translate(-330 -2308)"><rect class="c" width="4" height="4" transform="translate(653 2546)"/></g><g transform="translate(-313 -2308)"><rect class="c" width="4" height="4" transform="translate(653 2546)"/></g><g transform="translate(-296 -2308)"><rect class="c" width="4" height="4" transform="translate(653 2546)"/></g><g transform="translate(-279 -2308)"><rect class="c" width="4" height="4" transform="translate(653 2546)"/></g><g transform="translate(-262 -2308)"><rect class="c" width="4" height="4" transform="translate(653 2546)"/></g><g transform="translate(-245 -2308)"><rect class="c" width="4" height="4" transform="translate(653 2546)"/></g><g transform="translate(-228 -2308)"><rect class="c" width="4" height="4" transform="translate(653 2546)"/></g><g transform="translate(-211 -2308)"><rect class="c" width="4" height="4" transform="translate(653 2546)"/></g><g transform="translate(-194 -2308)"><rect class="c" width="4" height="4" transform="translate(653 2546)"/></g><g transform="translate(-653 -2291)"><rect class="c" width="4" height="4" transform="translate(653 2546)"/></g><g transform="translate(-636 -2291)"><rect class="c" width="4" height="4" transform="translate(653 2546)"/></g><g transform="translate(-619 -2291)"><rect class="c" width="4" height="4" transform="translate(653 2546)"/></g><g transform="translate(-602 -2291)"><rect class="c" width="4" height="4" transform="translate(653 2546)"/></g><g transform="translate(-585 -2291)"><rect class="c" width="4" height="4" transform="translate(653 2546)"/></g><g transform="translate(-568 -2291)"><rect class="c" width="4" height="4" transform="translate(653 2546)"/></g><g transform="translate(-551 -2291)"><rect class="c" width="4" height="4" transform="translate(653 2546)"/></g><g transform="translate(-534 -2291)"><rect class="c" width="4" height="4" transform="translate(653 2546)"/></g><g transform="translate(-517 -2291)"><rect class="c" width="4" height="4" transform="translate(653 2546)"/></g><g transform="translate(-500 -2291)"><rect class="c" width="4" height="4" transform="translate(653 2546)"/></g><g transform="translate(-483 -2291)"><rect class="c" width="4" height="4" transform="translate(653 2546)"/></g><g transform="translate(-466 -2291)"><rect class="c" width="4" height="4" transform="translate(653 2546)"/></g><g transform="translate(-449 -2291)"><rect class="c" width="4" height="4" transform="translate(653 2546)"/></g><g transform="translate(-432 -2291)"><rect class="c" width="4" height="4" transform="translate(653 2546)"/></g><g transform="translate(-415 -2291)"><rect class="c" width="4" height="4" transform="translate(653 2546)"/></g><g transform="translate(-398 -2291)"><rect class="c" width="4" height="4" transform="translate(653 2546)"/></g><g transform="translate(-381 -2291)"><rect class="c" width="4" height="4" transform="translate(653 2546)"/></g><g transform="translate(-364 -2291)"><rect class="c" width="4" height="4" transform="translate(653 2546)"/></g><g transform="translate(-347 -2291)"><rect class="c" width="4" height="4" transform="translate(653 2546)"/></g><g transform="translate(-330 -2291)"><rect class="c" width="4" height="4" transform="translate(653 2546)"/></g><g transform="translate(-313 -2291)"><rect class="c" width="4" height="4" transform="translate(653 2546)"/></g><g transform="translate(-296 -2291)"><rect class="c" width="4" height="4" transform="translate(653 2546)"/></g><g transform="translate(-279 -2291)"><rect class="c" width="4" height="4" transform="translate(653 2546)"/></g><g transform="translate(-262 -2291)"><rect class="c" width="4" height="4" transform="translate(653 2546)"/></g><g transform="translate(-245 -2291)"><rect class="c" width="4" height="4" transform="translate(653 2546)"/></g><g transform="translate(-228 -2291)"><rect class="c" width="4" height="4" transform="translate(653 2546)"/></g><g transform="translate(-211 -2291)"><rect class="c" width="4" height="4" transform="translate(653 2546)"/></g><g transform="translate(-194 -2291)"><rect class="c" width="4" height="4" transform="translate(653 2546)"/></g><g transform="translate(-653 -2274)"><rect class="c" width="4" height="4" transform="translate(653 2546)"/></g><g transform="translate(-636 -2274)"><rect class="c" width="4" height="4" transform="translate(653 2546)"/></g><g transform="translate(-619 -2274)"><rect class="c" width="4" height="4" transform="translate(653 2546)"/></g><g transform="translate(-602 -2274)"><rect class="c" width="4" height="4" transform="translate(653 2546)"/></g><g transform="translate(-585 -2274)"><rect class="c" width="4" height="4" transform="translate(653 2546)"/></g><g transform="translate(-568 -2274)"><rect class="c" width="4" height="4" transform="translate(653 2546)"/></g><g transform="translate(-551 -2274)"><rect class="c" width="4" height="4" transform="translate(653 2546)"/></g><g transform="translate(-534 -2274)"><rect class="c" width="4" height="4" transform="translate(653 2546)"/></g><g transform="translate(-517 -2274)"><rect class="c" width="4" height="4" transform="translate(653 2546)"/></g><g transform="translate(-500 -2274)"><rect class="c" width="4" height="4" transform="translate(653 2546)"/></g><g transform="translate(-483 -2274)"><rect class="c" width="4" height="4" transform="translate(653 2546)"/></g><g transform="translate(-466 -2274)"><rect class="c" width="4" height="4" transform="translate(653 2546)"/></g><g transform="translate(-449 -2274)"><rect class="c" width="4" height="4" transform="translate(653 2546)"/></g><g transform="translate(-432 -2274)"><rect class="c" width="4" height="4" transform="translate(653 2546)"/></g><g transform="translate(-415 -2274)"><rect class="c" width="4" height="4" transform="translate(653 2546)"/></g><g transform="translate(-398 -2274)"><rect class="c" width="4" height="4" transform="translate(653 2546)"/></g><g transform="translate(-381 -2274)"><rect class="c" width="4" height="4" transform="translate(653 2546)"/></g><g transform="translate(-364 -2274)"><rect class="c" width="4" height="4" transform="translate(653 2546)"/></g><g transform="translate(-347 -2274)"><rect class="c" width="4" height="4" transform="translate(653 2546)"/></g><g transform="translate(-330 -2274)"><rect class="c" width="4" height="4" transform="translate(653 2546)"/></g><g transform="translate(-313 -2274)"><rect class="c" width="4" height="4" transform="translate(653 2546)"/></g><g transform="translate(-296 -2274)"><rect class="c" width="4" height="4" transform="translate(653 2546)"/></g><g transform="translate(-279 -2274)"><rect class="c" width="4" height="4" transform="translate(653 2546)"/></g><g transform="translate(-262 -2274)"><rect class="c" width="4" height="4" transform="translate(653 2546)"/></g><g transform="translate(-245 -2274)"><rect class="c" width="4" height="4" transform="translate(653 2546)"/></g><g transform="translate(-228 -2274)"><rect class="c" width="4" height="4" transform="translate(653 2546)"/></g><g transform="translate(-211 -2274)"><rect class="c" width="4" height="4" transform="translate(653 2546)"/></g><g transform="translate(-194 -2274)"><rect class="c" width="4" height="4" transform="translate(653 2546)"/></g><g transform="translate(-653 -2257)"><rect class="c" width="4" height="4" transform="translate(653 2546)"/></g><g transform="translate(-636 -2257)"><rect class="c" width="4" height="4" transform="translate(653 2546)"/></g><g transform="translate(-619 -2257)"><rect class="c" width="4" height="4" transform="translate(653 2546)"/></g><g transform="translate(-602 -2257)"><rect class="c" width="4" height="4" transform="translate(653 2546)"/></g><g transform="translate(-585 -2257)"><rect class="c" width="4" height="4" transform="translate(653 2546)"/></g><g transform="translate(-568 -2257)"><rect class="c" width="4" height="4" transform="translate(653 2546)"/></g><g transform="translate(-551 -2257)"><rect class="c" width="4" height="4" transform="translate(653 2546)"/></g><g transform="translate(-534 -2257)"><rect class="c" width="4" height="4" transform="translate(653 2546)"/></g><g transform="translate(-517 -2257)"><rect class="c" width="4" height="4" transform="translate(653 2546)"/></g><g transform="translate(-500 -2257)"><rect class="c" width="4" height="4" transform="translate(653 2546)"/></g><g transform="translate(-483 -2257)"><rect class="c" width="4" height="4" transform="translate(653 2546)"/></g><g transform="translate(-466 -2257)"><rect class="c" width="4" height="4" transform="translate(653 2546)"/></g><g transform="translate(-449 -2257)"><rect class="c" width="4" height="4" transform="translate(653 2546)"/></g><g transform="translate(-432 -2257)"><rect class="c" width="4" height="4" transform="translate(653 2546)"/></g><g transform="translate(-415 -2257)"><rect class="c" width="4" height="4" transform="translate(653 2546)"/></g><g transform="translate(-398 -2257)"><rect class="c" width="4" height="4" transform="translate(653 2546)"/></g><g transform="translate(-381 -2257)"><rect class="c" width="4" height="4" transform="translate(653 2546)"/></g><g transform="translate(-364 -2257)"><rect class="c" width="4" height="4" transform="translate(653 2546)"/></g><g transform="translate(-347 -2257)"><rect class="c" width="4" height="4" transform="translate(653 2546)"/></g><g transform="translate(-330 -2257)"><rect class="c" width="4" height="4" transform="translate(653 2546)"/></g><g transform="translate(-313 -2257)"><rect class="c" width="4" height="4" transform="translate(653 2546)"/></g><g transform="translate(-296 -2257)"><rect class="c" width="4" height="4" transform="translate(653 2546)"/></g><g transform="translate(-279 -2257)"><rect class="c" width="4" height="4" transform="translate(653 2546)"/></g><g transform="translate(-262 -2257)"><rect class="c" width="4" height="4" transform="translate(653 2546)"/></g><g transform="translate(-245 -2257)"><rect class="c" width="4" height="4" transform="translate(653 2546)"/></g><g transform="translate(-228 -2257)"><rect class="c" width="4" height="4" transform="translate(653 2546)"/></g><g transform="translate(-211 -2257)"><rect class="c" width="4" height="4" transform="translate(653 2546)"/></g><g transform="translate(-194 -2257)"><rect class="c" width="4" height="4" transform="translate(653 2546)"/></g><g transform="translate(-653 -2240)"><rect class="c" width="4" height="4" transform="translate(653 2546)"/></g><g transform="translate(-636 -2240)"><rect class="c" width="4" height="4" transform="translate(653 2546)"/></g><g transform="translate(-619 -2240)"><rect class="c" width="4" height="4" transform="translate(653 2546)"/></g><g transform="translate(-602 -2240)"><rect class="c" width="4" height="4" transform="translate(653 2546)"/></g><g transform="translate(-585 -2240)"><rect class="c" width="4" height="4" transform="translate(653 2546)"/></g><g transform="translate(-568 -2240)"><rect class="c" width="4" height="4" transform="translate(653 2546)"/></g><g transform="translate(-551 -2240)"><rect class="c" width="4" height="4" transform="translate(653 2546)"/></g><g transform="translate(-534 -2240)"><rect class="c" width="4" height="4" transform="translate(653 2546)"/></g><g transform="translate(-517 -2240)"><rect class="c" width="4" height="4" transform="translate(653 2546)"/></g><g transform="translate(-500 -2240)"><rect class="c" width="4" height="4" transform="translate(653 2546)"/></g><g transform="translate(-483 -2240)"><rect class="c" width="4" height="4" transform="translate(653 2546)"/></g><g transform="translate(-466 -2240)"><rect class="c" width="4" height="4" transform="translate(653 2546)"/></g><g transform="translate(-449 -2240)"><rect class="c" width="4" height="4" transform="translate(653 2546)"/></g><g transform="translate(-432 -2240)"><rect class="c" width="4" height="4" transform="translate(653 2546)"/></g><g transform="translate(-415 -2240)"><rect class="c" width="4" height="4" transform="translate(653 2546)"/></g><g transform="translate(-398 -2240)"><rect class="c" width="4" height="4" transform="translate(653 2546)"/></g><g transform="translate(-381 -2240)"><rect class="c" width="4" height="4" transform="translate(653 2546)"/></g><g transform="translate(-364 -2240)"><rect class="c" width="4" height="4" transform="translate(653 2546)"/></g><g transform="translate(-347 -2240)"><rect class="c" width="4" height="4" transform="translate(653 2546)"/></g><g transform="translate(-330 -2240)"><rect class="c" width="4" height="4" transform="translate(653 2546)"/></g><g transform="translate(-313 -2240)"><rect class="c" width="4" height="4" transform="translate(653 2546)"/></g><g transform="translate(-296 -2240)"><rect class="c" width="4" height="4" transform="translate(653 2546)"/></g><g transform="translate(-279 -2240)"><rect class="c" width="4" height="4" transform="translate(653 2546)"/></g><g transform="translate(-262 -2240)"><rect class="c" width="4" height="4" transform="translate(653 2546)"/></g><g transform="translate(-245 -2240)"><rect class="c" width="4" height="4" transform="translate(653 2546)"/></g><g transform="translate(-228 -2240)"><rect class="c" width="4" height="4" transform="translate(653 2546)"/></g><g transform="translate(-211 -2240)"><rect class="c" width="4" height="4" transform="translate(653 2546)"/></g><g transform="translate(-194 -2240)"><rect class="c" width="4" height="4" transform="translate(653 2546)"/></g><g transform="translate(-653 -2223)"><rect class="c" width="4" height="4" transform="translate(653 2546)"/></g><g transform="translate(-636 -2223)"><rect class="c" width="4" height="4" transform="translate(653 2546)"/></g><g transform="translate(-619 -2223)"><rect class="c" width="4" height="4" transform="translate(653 2546)"/></g><g transform="translate(-602 -2223)"><rect class="c" width="4" height="4" transform="translate(653 2546)"/></g><g transform="translate(-585 -2223)"><rect class="c" width="4" height="4" transform="translate(653 2546)"/></g><g transform="translate(-568 -2223)"><rect class="c" width="4" height="4" transform="translate(653 2546)"/></g><g transform="translate(-551 -2223)"><rect class="c" width="4" height="4" transform="translate(653 2546)"/></g><g transform="translate(-534 -2223)"><rect class="c" width="4" height="4" transform="translate(653 2546)"/></g><g transform="translate(-517 -2223)"><rect class="c" width="4" height="4" transform="translate(653 2546)"/></g><g transform="translate(-500 -2223)"><rect class="c" width="4" height="4" transform="translate(653 2546)"/></g><g transform="translate(-483 -2223)"><rect class="c" width="4" height="4" transform="translate(653 2546)"/></g><g transform="translate(-466 -2223)"><rect class="c" width="4" height="4" transform="translate(653 2546)"/></g><g transform="translate(-449 -2223)"><rect class="c" width="4" height="4" transform="translate(653 2546)"/></g><g transform="translate(-432 -2223)"><rect class="c" width="4" height="4" transform="translate(653 2546)"/></g><g transform="translate(-415 -2223)"><rect class="c" width="4" height="4" transform="translate(653 2546)"/></g><g transform="translate(-398 -2223)"><rect class="c" width="4" height="4" transform="translate(653 2546)"/></g><g transform="translate(-381 -2223)"><rect class="c" width="4" height="4" transform="translate(653 2546)"/></g><g transform="translate(-364 -2223)"><rect class="c" width="4" height="4" transform="translate(653 2546)"/></g><g transform="translate(-347 -2223)"><rect class="c" width="4" height="4" transform="translate(653 2546)"/></g><g transform="translate(-330 -2223)"><rect class="c" width="4" height="4" transform="translate(653 2546)"/></g><g transform="translate(-313 -2223)"><rect class="c" width="4" height="4" transform="translate(653 2546)"/></g><g transform="translate(-296 -2223)"><rect class="c" width="4" height="4" transform="translate(653 2546)"/></g><g transform="translate(-279 -2223)"><rect class="c" width="4" height="4" transform="translate(653 2546)"/></g><g transform="translate(-262 -2223)"><rect class="c" width="4" height="4" transform="translate(653 2546)"/></g><g transform="translate(-245 -2223)"><rect class="c" width="4" height="4" transform="translate(653 2546)"/></g><g transform="translate(-228 -2223)"><rect class="c" width="4" height="4" transform="translate(653 2546)"/></g><g transform="translate(-211 -2223)"><rect class="c" width="4" height="4" transform="translate(653 2546)"/></g><g transform="translate(-194 -2223)"><rect class="c" width="4" height="4" transform="translate(653 2546)"/></g><g transform="translate(-653 -2206)"><rect class="c" width="4" height="4" transform="translate(653 2546)"/></g><g transform="translate(-636 -2206)"><rect class="c" width="4" height="4" transform="translate(653 2546)"/></g><g transform="translate(-619 -2206)"><rect class="c" width="4" height="4" transform="translate(653 2546)"/></g><g transform="translate(-602 -2206)"><rect class="c" width="4" height="4" transform="translate(653 2546)"/></g><g transform="translate(-585 -2206)"><rect class="c" width="4" height="4" transform="translate(653 2546)"/></g><g transform="translate(-568 -2206)"><rect class="c" width="4" height="4" transform="translate(653 2546)"/></g><g transform="translate(-551 -2206)"><rect class="c" width="4" height="4" transform="translate(653 2546)"/></g><g transform="translate(-534 -2206)"><rect class="c" width="4" height="4" transform="translate(653 2546)"/></g><g transform="translate(-517 -2206)"><rect class="c" width="4" height="4" transform="translate(653 2546)"/></g><g transform="translate(-500 -2206)"><rect class="c" width="4" height="4" transform="translate(653 2546)"/></g><g transform="translate(-483 -2206)"><rect class="c" width="4" height="4" transform="translate(653 2546)"/></g><g transform="translate(-466 -2206)"><rect class="c" width="4" height="4" transform="translate(653 2546)"/></g><g transform="translate(-449 -2206)"><rect class="c" width="4" height="4" transform="translate(653 2546)"/></g><g transform="translate(-432 -2206)"><rect class="c" width="4" height="4" transform="translate(653 2546)"/></g><g transform="translate(-415 -2206)"><rect class="c" width="4" height="4" transform="translate(653 2546)"/></g><g transform="translate(-398 -2206)"><rect class="c" width="4" height="4" transform="translate(653 2546)"/></g><g transform="translate(-381 -2206)"><rect class="c" width="4" height="4" transform="translate(653 2546)"/></g><g transform="translate(-364 -2206)"><rect class="c" width="4" height="4" transform="translate(653 2546)"/></g><g transform="translate(-347 -2206)"><rect class="c" width="4" height="4" transform="translate(653 2546)"/></g><g transform="translate(-330 -2206)"><rect class="c" width="4" height="4" transform="translate(653 2546)"/></g><g transform="translate(-313 -2206)"><rect class="c" width="4" height="4" transform="translate(653 2546)"/></g><g transform="translate(-296 -2206)"><rect class="c" width="4" height="4" transform="translate(653 2546)"/></g><g transform="translate(-279 -2206)"><rect class="c" width="4" height="4" transform="translate(653 2546)"/></g><g transform="translate(-262 -2206)"><rect class="c" width="4" height="4" transform="translate(653 2546)"/></g><g transform="translate(-245 -2206)"><rect class="c" width="4" height="4" transform="translate(653 2546)"/></g><g transform="translate(-228 -2206)"><rect class="c" width="4" height="4" transform="translate(653 2546)"/></g><g transform="translate(-211 -2206)"><rect class="c" width="4" height="4" transform="translate(653 2546)"/></g><g transform="translate(-194 -2206)"><rect class="c" width="4" height="4" transform="translate(653 2546)"/></g><g transform="translate(-653 -2189)"><rect class="c" width="4" height="4" transform="translate(653 2546)"/></g><g transform="translate(-636 -2189)"><rect class="c" width="4" height="4" transform="translate(653 2546)"/></g><g transform="translate(-619 -2189)"><rect class="c" width="4" height="4" transform="translate(653 2546)"/></g><g transform="translate(-602 -2189)"><rect class="c" width="4" height="4" transform="translate(653 2546)"/></g><g transform="translate(-585 -2189)"><rect class="c" width="4" height="4" transform="translate(653 2546)"/></g><g transform="translate(-568 -2189)"><rect class="c" width="4" height="4" transform="translate(653 2546)"/></g><g transform="translate(-551 -2189)"><rect class="c" width="4" height="4" transform="translate(653 2546)"/></g><g transform="translate(-534 -2189)"><rect class="c" width="4" height="4" transform="translate(653 2546)"/></g><g transform="translate(-517 -2189)"><rect class="c" width="4" height="4" transform="translate(653 2546)"/></g><g transform="translate(-500 -2189)"><rect class="c" width="4" height="4" transform="translate(653 2546)"/></g><g transform="translate(-483 -2189)"><rect class="c" width="4" height="4" transform="translate(653 2546)"/></g><g transform="translate(-466 -2189)"><rect class="c" width="4" height="4" transform="translate(653 2546)"/></g><g transform="translate(-449 -2189)"><rect class="c" width="4" height="4" transform="translate(653 2546)"/></g><g transform="translate(-432 -2189)"><rect class="c" width="4" height="4" transform="translate(653 2546)"/></g><g transform="translate(-415 -2189)"><rect class="c" width="4" height="4" transform="translate(653 2546)"/></g><g transform="translate(-398 -2189)"><rect class="c" width="4" height="4" transform="translate(653 2546)"/></g><g transform="translate(-381 -2189)"><rect class="c" width="4" height="4" transform="translate(653 2546)"/></g><g transform="translate(-364 -2189)"><rect class="c" width="4" height="4" transform="translate(653 2546)"/></g><g transform="translate(-347 -2189)"><rect class="c" width="4" height="4" transform="translate(653 2546)"/></g><g transform="translate(-330 -2189)"><rect class="c" width="4" height="4" transform="translate(653 2546)"/></g><g transform="translate(-313 -2189)"><rect class="c" width="4" height="4" transform="translate(653 2546)"/></g><g transform="translate(-296 -2189)"><rect class="c" width="4" height="4" transform="translate(653 2546)"/></g><g transform="translate(-279 -2189)"><rect class="c" width="4" height="4" transform="translate(653 2546)"/></g><g transform="translate(-262 -2189)"><rect class="c" width="4" height="4" transform="translate(653 2546)"/></g><g transform="translate(-245 -2189)"><rect class="c" width="4" height="4" transform="translate(653 2546)"/></g><g transform="translate(-228 -2189)"><rect class="c" width="4" height="4" transform="translate(653 2546)"/></g><g transform="translate(-211 -2189)"><rect class="c" width="4" height="4" transform="translate(653 2546)"/></g><g transform="translate(-194 -2189)"><rect class="c" width="4" height="4" transform="translate(653 2546)"/></g><g transform="translate(-653 -2172)"><rect class="c" width="4" height="4" transform="translate(653 2546)"/></g><g transform="translate(-636 -2172)"><rect class="c" width="4" height="4" transform="translate(653 2546)"/></g><g transform="translate(-619 -2172)"><rect class="c" width="4" height="4" transform="translate(653 2546)"/></g><g transform="translate(-602 -2172)"><rect class="c" width="4" height="4" transform="translate(653 2546)"/></g><g transform="translate(-585 -2172)"><rect class="c" width="4" height="4" transform="translate(653 2546)"/></g><g transform="translate(-568 -2172)"><rect class="c" width="4" height="4" transform="translate(653 2546)"/></g><g transform="translate(-551 -2172)"><rect class="c" width="4" height="4" transform="translate(653 2546)"/></g><g transform="translate(-534 -2172)"><rect class="c" width="4" height="4" transform="translate(653 2546)"/></g><g transform="translate(-517 -2172)"><rect class="c" width="4" height="4" transform="translate(653 2546)"/></g><g transform="translate(-500 -2172)"><rect class="c" width="4" height="4" transform="translate(653 2546)"/></g><g transform="translate(-483 -2172)"><rect class="c" width="4" height="4" transform="translate(653 2546)"/></g><g transform="translate(-466 -2172)"><rect class="c" width="4" height="4" transform="translate(653 2546)"/></g><g transform="translate(-449 -2172)"><rect class="c" width="4" height="4" transform="translate(653 2546)"/></g><g transform="translate(-432 -2172)"><rect class="c" width="4" height="4" transform="translate(653 2546)"/></g><g transform="translate(-415 -2172)"><rect class="c" width="4" height="4" transform="translate(653 2546)"/></g><g transform="translate(-398 -2172)"><rect class="c" width="4" height="4" transform="translate(653 2546)"/></g><g transform="translate(-381 -2172)"><rect class="c" width="4" height="4" transform="translate(653 2546)"/></g><g transform="translate(-364 -2172)"><rect class="c" width="4" height="4" transform="translate(653 2546)"/></g><g transform="translate(-347 -2172)"><rect class="c" width="4" height="4" transform="translate(653 2546)"/></g><g transform="translate(-330 -2172)"><rect class="c" width="4" height="4" transform="translate(653 2546)"/></g><g transform="translate(-313 -2172)"><rect class="c" width="4" height="4" transform="translate(653 2546)"/></g><g transform="translate(-296 -2172)"><rect class="c" width="4" height="4" transform="translate(653 2546)"/></g><g transform="translate(-279 -2172)"><rect class="c" width="4" height="4" transform="translate(653 2546)"/></g><g transform="translate(-262 -2172)"><rect class="c" width="4" height="4" transform="translate(653 2546)"/></g><g transform="translate(-245 -2172)"><rect class="c" width="4" height="4" transform="translate(653 2546)"/></g><g transform="translate(-228 -2172)"><rect class="c" width="4" height="4" transform="translate(653 2546)"/></g><g transform="translate(-211 -2172)"><rect class="c" width="4" height="4" transform="translate(653 2546)"/></g><g transform="translate(-194 -2172)"><rect class="c" width="4" height="4" transform="translate(653 2546)"/></g><g transform="translate(-653 -2155)"><rect class="c" width="4" height="4" transform="translate(653 2546)"/></g><g transform="translate(-636 -2155)"><rect class="c" width="4" height="4" transform="translate(653 2546)"/></g><g transform="translate(-619 -2155)"><rect class="c" width="4" height="4" transform="translate(653 2546)"/></g><g transform="translate(-602 -2155)"><rect class="c" width="4" height="4" transform="translate(653 2546)"/></g><g transform="translate(-585 -2155)"><rect class="c" width="4" height="4" transform="translate(653 2546)"/></g><g transform="translate(-568 -2155)"><rect class="c" width="4" height="4" transform="translate(653 2546)"/></g><g transform="translate(-551 -2155)"><rect class="c" width="4" height="4" transform="translate(653 2546)"/></g><g transform="translate(-534 -2155)"><rect class="c" width="4" height="4" transform="translate(653 2546)"/></g><g transform="translate(-517 -2155)"><rect class="c" width="4" height="4" transform="translate(653 2546)"/></g><g transform="translate(-500 -2155)"><rect class="c" width="4" height="4" transform="translate(653 2546)"/></g><g transform="translate(-483 -2155)"><rect class="c" width="4" height="4" transform="translate(653 2546)"/></g><g transform="translate(-466 -2155)"><rect class="c" width="4" height="4" transform="translate(653 2546)"/></g><g transform="translate(-449 -2155)"><rect class="c" width="4" height="4" transform="translate(653 2546)"/></g><g transform="translate(-432 -2155)"><rect class="c" width="4" height="4" transform="translate(653 2546)"/></g><g transform="translate(-415 -2155)"><rect class="c" width="4" height="4" transform="translate(653 2546)"/></g><g transform="translate(-398 -2155)"><rect class="c" width="4" height="4" transform="translate(653 2546)"/></g><g transform="translate(-381 -2155)"><rect class="c" width="4" height="4" transform="translate(653 2546)"/></g><g transform="translate(-364 -2155)"><rect class="c" width="4" height="4" transform="translate(653 2546)"/></g><g transform="translate(-347 -2155)"><rect class="c" width="4" height="4" transform="translate(653 2546)"/></g><g transform="translate(-330 -2155)"><rect class="c" width="4" height="4" transform="translate(653 2546)"/></g><g transform="translate(-313 -2155)"><rect class="c" width="4" height="4" transform="translate(653 2546)"/></g><g transform="translate(-296 -2155)"><rect class="c" width="4" height="4" transform="translate(653 2546)"/></g><g transform="translate(-279 -2155)"><rect class="c" width="4" height="4" transform="translate(653 2546)"/></g><g transform="translate(-262 -2155)"><rect class="c" width="4" height="4" transform="translate(653 2546)"/></g><g transform="translate(-245 -2155)"><rect class="c" width="4" height="4" transform="translate(653 2546)"/></g><g transform="translate(-228 -2155)"><rect class="c" width="4" height="4" transform="translate(653 2546)"/></g><g transform="translate(-211 -2155)"><rect class="c" width="4" height="4" transform="translate(653 2546)"/></g><g transform="translate(-194 -2155)"><rect class="c" width="4" height="4" transform="translate(653 2546)"/></g></g></svg>